<svg xmlns="http://www.w3.org/2000/svg" xmlns:xlink="http://www.w3.org/1999/xlink" width="500" zoomAndPan="magnify" viewBox="0 0 375 374.999991" height="500" preserveAspectRatio="xMidYMid meet" version="1.0"><defs><clipPath id="7a4f85aa7b"><path d="M 165 62 L 181 62 L 181 75 L 165 75 Z M 165 62 " clip-rule="nonzero"/></clipPath><clipPath id="3c7ef9fd43"><path d="M 192.390625 323.800781 L 37.535156 168.945312 L 192.921875 13.558594 L 347.777344 168.414062 Z M 192.390625 323.800781 " clip-rule="nonzero"/></clipPath><clipPath id="522454af7d"><path d="M 347.84375 168.347656 L 192.988281 13.492188 L 37.601562 168.878906 L 192.457031 323.734375 Z M 347.84375 168.347656 " clip-rule="nonzero"/></clipPath><clipPath id="7cba20e15e"><path d="M 178 27 L 207 27 L 207 83 L 178 83 Z M 178 27 " clip-rule="nonzero"/></clipPath><clipPath id="68980e7a19"><path d="M 192.390625 323.800781 L 37.535156 168.945312 L 192.921875 13.558594 L 347.777344 168.414062 Z M 192.390625 323.800781 " clip-rule="nonzero"/></clipPath><clipPath id="d9f034b78d"><path d="M 347.84375 168.347656 L 192.988281 13.492188 L 37.601562 168.878906 L 192.457031 323.734375 Z M 347.84375 168.347656 " clip-rule="nonzero"/></clipPath><clipPath id="b7e779ae48"><path d="M 159 53 L 169 53 L 169 172 L 159 172 Z M 159 53 " clip-rule="nonzero"/></clipPath><clipPath id="5b41599b95"><path d="M 192.390625 323.800781 L 37.535156 168.945312 L 192.921875 13.558594 L 347.777344 168.414062 Z M 192.390625 323.800781 " clip-rule="nonzero"/></clipPath><clipPath id="bae97efda8"><path d="M 347.84375 168.347656 L 192.988281 13.492188 L 37.601562 168.878906 L 192.457031 323.734375 Z M 347.84375 168.347656 " clip-rule="nonzero"/></clipPath><clipPath id="0eadb67e68"><path d="M 178 55 L 207 55 L 207 324 L 178 324 Z M 178 55 " clip-rule="nonzero"/></clipPath><clipPath id="9485522566"><path d="M 192.390625 323.800781 L 37.535156 168.945312 L 192.921875 13.558594 L 347.777344 168.414062 Z M 192.390625 323.800781 " clip-rule="nonzero"/></clipPath><clipPath id="2da568fae7"><path d="M 347.84375 168.347656 L 192.988281 13.492188 L 37.601562 168.878906 L 192.457031 323.734375 Z M 347.84375 168.347656 " clip-rule="nonzero"/></clipPath><clipPath id="6aae6c2e5c"><path d="M 178 285 L 207 285 L 207 324 L 178 324 Z M 178 285 " clip-rule="nonzero"/></clipPath><clipPath id="0b4f8cb55c"><path d="M 192.390625 323.800781 L 37.535156 168.945312 L 192.921875 13.558594 L 347.777344 168.414062 Z M 192.390625 323.800781 " clip-rule="nonzero"/></clipPath><clipPath id="c9cbb03b18"><path d="M 347.84375 168.347656 L 192.988281 13.492188 L 37.601562 168.878906 L 192.457031 323.734375 Z M 347.84375 168.347656 " clip-rule="nonzero"/></clipPath><clipPath id="92041d5883"><path d="M 186 308 L 199 308 L 199 324 L 186 324 Z M 186 308 " clip-rule="nonzero"/></clipPath><clipPath id="bbbc91a00f"><path d="M 192.390625 323.800781 L 37.535156 168.945312 L 192.921875 13.558594 L 347.777344 168.414062 Z M 192.390625 323.800781 " clip-rule="nonzero"/></clipPath><clipPath id="6a8a2561ba"><path d="M 347.84375 168.347656 L 192.988281 13.492188 L 37.601562 168.878906 L 192.457031 323.734375 Z M 347.84375 168.347656 " clip-rule="nonzero"/></clipPath><clipPath id="7170f070da"><path d="M 178 55 L 207 55 L 207 79 L 178 79 Z M 178 55 " clip-rule="nonzero"/></clipPath><clipPath id="94beb5d61f"><path d="M 192.390625 323.800781 L 37.535156 168.945312 L 192.921875 13.558594 L 347.777344 168.414062 Z M 192.390625 323.800781 " clip-rule="nonzero"/></clipPath><clipPath id="93f25268f6"><path d="M 347.84375 168.347656 L 192.988281 13.492188 L 37.601562 168.878906 L 192.457031 323.734375 Z M 347.84375 168.347656 " clip-rule="nonzero"/></clipPath><clipPath id="f31f0a86cb"><path d="M 177.867188 95.222656 L 207.117188 95.222656 L 207.117188 124.285156 L 177.867188 124.285156 Z M 177.867188 95.222656 " clip-rule="nonzero"/></clipPath><clipPath id="e6dec41ebb"><path d="M 177.867188 109.941406 L 207.117188 109.941406 L 207.117188 139.003906 L 177.867188 139.003906 Z M 177.867188 109.941406 " clip-rule="nonzero"/></clipPath><clipPath id="b39109693b"><path d="M 177.867188 124.660156 L 207.117188 124.660156 L 207.117188 153.722656 L 177.867188 153.722656 Z M 177.867188 124.660156 " clip-rule="nonzero"/></clipPath><clipPath id="82ba959f53"><path d="M 178.121094 139.378906 L 207.371094 139.378906 L 207.371094 168.441406 L 178.121094 168.441406 Z M 178.121094 139.378906 " clip-rule="nonzero"/></clipPath><clipPath id="789157ecbb"><path d="M 42 323 L 193 323 L 193 366 L 42 366 Z M 42 323 " clip-rule="nonzero"/></clipPath><clipPath id="fee027ad87"><path d="M 40.316406 330.203125 L 192.324219 321.632812 L 194.308594 356.828125 L 42.300781 365.394531 Z M 40.316406 330.203125 " clip-rule="nonzero"/></clipPath><clipPath id="f63322272e"><path d="M 40.316406 330.203125 L 192.324219 321.632812 L 194.308594 356.828125 L 42.300781 365.394531 Z M 40.316406 330.203125 " clip-rule="nonzero"/></clipPath></defs><rect x="-37.5" width="450" fill="#ffffff" y="-37.499999" height="449.999989" fill-opacity="1"/><rect x="-37.5" width="450" fill="#000000" y="-37.499999" height="449.999989" fill-opacity="1"/><g clip-path="url(#7a4f85aa7b)"><g clip-path="url(#3c7ef9fd43)"><g clip-path="url(#522454af7d)"><path fill="#ffffff" d="M 165.640625 74.371094 L 180.464844 74.421875 L 180.5 62.351562 L 165.675781 62.300781 L 165.640625 74.371094 " fill-opacity="1" fill-rule="nonzero"/></g></g></g><g clip-path="url(#7cba20e15e)"><g clip-path="url(#68980e7a19)"><g clip-path="url(#d9f034b78d)"><path fill="#ffffff" d="M 178.664062 77.957031 C 178.652344 80.339844 180.578125 82.28125 182.957031 82.289062 L 202.476562 82.347656 C 204.859375 82.359375 206.792969 80.425781 206.796875 78.046875 L 206.933594 36.351562 C 206.960938 27.605469 201.707031 27.589844 199.324219 27.578125 L 186.269531 27.542969 C 183.882812 27.535156 178.820312 27.523438 178.789062 36.257812 L 178.664062 77.957031 " fill-opacity="1" fill-rule="nonzero"/></g></g></g><g clip-path="url(#b7e779ae48)"><g clip-path="url(#5b41599b95)"><g clip-path="url(#bae97efda8)"><path fill="#ffffff" d="M 159.324219 167.3125 C 159.320312 169.6875 159.929688 171.628906 160.691406 171.621094 L 166.917969 171.648438 C 167.683594 171.648438 168.304688 169.71875 168.3125 167.34375 L 168.507812 61.972656 C 168.539062 53.226562 166.855469 53.21875 166.097656 53.214844 L 161.929688 53.203125 C 161.164062 53.203125 159.550781 53.195312 159.523438 61.941406 L 159.324219 167.3125 " fill-opacity="1" fill-rule="nonzero"/></g></g></g><g clip-path="url(#0eadb67e68)"><g clip-path="url(#9485522566)"><g clip-path="url(#2da568fae7)"><path fill="#ffffff" d="M 206.871094 55.140625 L 206.605469 285.578125 L 192.417969 323.753906 L 178.460938 285.488281 L 178.734375 55.050781 L 206.871094 55.140625 " fill-opacity="1" fill-rule="nonzero"/></g></g></g><g clip-path="url(#6aae6c2e5c)"><g clip-path="url(#0b4f8cb55c)"><g clip-path="url(#c9cbb03b18)"><path fill="#ffffff" d="M 206.605469 285.578125 L 192.417969 323.753906 L 178.460938 285.488281 Z M 206.605469 285.578125 " fill-opacity="1" fill-rule="nonzero"/></g></g></g><g clip-path="url(#92041d5883)"><g clip-path="url(#bbbc91a00f)"><g clip-path="url(#6a8a2561ba)"><path fill="#ffffff" d="M 198.027344 308.648438 L 192.417969 323.753906 L 186.878906 308.550781 Z M 198.027344 308.648438 " fill-opacity="1" fill-rule="nonzero"/></g></g></g><g clip-path="url(#7170f070da)"><g clip-path="url(#94beb5d61f)"><g clip-path="url(#93f25268f6)"><path fill="#ffffff" d="M 178.664062 77.957031 L 206.796875 78.046875 L 206.871094 55.140625 L 178.734375 55.050781 L 178.664062 77.957031 " fill-opacity="1" fill-rule="nonzero"/></g></g></g><g clip-path="url(#f31f0a86cb)"><path fill="#1e0b4c" d="M 177.996094 114.476562 L 177.996094 124.472656 L 207.097656 105.027344 L 207.097656 95.03125 Z M 177.996094 114.476562 " fill-opacity="1" fill-rule="nonzero"/></g><g clip-path="url(#e6dec41ebb)"><path fill="#4c0b24" d="M 177.996094 129.195312 L 177.996094 139.191406 L 207.097656 119.746094 L 207.097656 109.75 Z M 177.996094 129.195312 " fill-opacity="1" fill-rule="nonzero"/></g><g clip-path="url(#b39109693b)"><path fill="#0b3a4c" d="M 177.996094 143.914062 L 177.996094 153.910156 L 207.097656 134.464844 L 207.097656 124.46875 Z M 177.996094 143.914062 " fill-opacity="1" fill-rule="nonzero"/></g><g clip-path="url(#82ba959f53)"><path fill="#4c4c0b" d="M 178.253906 158.632812 L 178.253906 168.628906 L 207.355469 149.183594 L 207.355469 139.1875 Z M 178.253906 158.632812 " fill-opacity="1" fill-rule="nonzero"/></g><g clip-path="url(#789157ecbb)"><g clip-path="url(#fee027ad87)"><g clip-path="url(#f63322272e)"><path fill="#ffffff" d="M 122.128906 347.015625 C 122.535156 347.257812 122.917969 347.488281 123.355469 347.152344 C 123.953125 347.191406 124.476562 346.933594 125.03125 346.746094 C 126.027344 346.402344 127.007812 346.011719 127.992188 345.609375 C 128.890625 345.238281 129.832031 344.945312 130.6875 344.453125 C 131.5 343.988281 132.347656 343.535156 133.238281 343.246094 C 133.953125 343.015625 134.605469 342.667969 135.292969 342.378906 C 135.949219 342.101562 136.546875 341.71875 137.203125 341.457031 C 138.183594 341.054688 139.058594 340.40625 140.09375 340.121094 C 140.386719 340.035156 140.636719 339.804688 140.917969 339.667969 C 141.441406 339.398438 141.957031 339.058594 142.511719 338.910156 C 143.066406 338.757812 143.394531 338.238281 143.976562 338.179688 C 145.488281 337.425781 147.015625 336.695312 148.566406 336.03125 C 148.671875 335.992188 148.777344 335.914062 148.878906 335.847656 C 149.722656 335.320312 150.621094 334.9375 151.546875 334.574219 C 151.875 334.449219 152.191406 334.320312 152.476562 334.078125 C 152.726562 333.863281 153.101562 333.757812 153.445312 333.675781 C 154.175781 333.492188 154.828125 333.144531 155.449219 332.738281 C 155.542969 332.675781 155.660156 332.632812 155.761719 332.589844 C 156.988281 332.078125 158.230469 331.566406 159.453125 331.042969 C 159.886719 330.863281 160.289062 330.578125 160.738281 330.457031 C 161.195312 330.335938 161.644531 330.191406 162.046875 329.941406 C 162.210938 329.847656 162.425781 329.859375 162.613281 329.789062 C 163.011719 329.632812 163.40625 329.457031 163.804688 329.277344 C 164.164062 329.113281 164.511719 328.917969 164.875 328.800781 C 166.839844 328.210938 168.679688 327.332031 170.589844 326.613281 C 171.324219 326.332031 172.066406 326.074219 172.820312 325.878906 C 173.429688 325.710938 173.988281 325.429688 174.589844 325.25 C 175.292969 325.03125 176.019531 324.945312 176.710938 324.6875 C 177.660156 324.335938 178.652344 324.339844 179.628906 324.296875 C 179.867188 324.285156 180.09375 324.269531 180.328125 324.378906 C 181.039062 324.671875 181.054688 324.777344 181.101562 325.410156 C 181.140625 325.898438 181.082031 326.34375 180.871094 326.785156 C 180.675781 327.179688 180.53125 327.582031 180.363281 327.976562 C 180.660156 328.136719 180.96875 328.109375 181.199219 328 C 181.738281 327.753906 182.332031 327.671875 182.851562 327.378906 C 183.535156 327.007812 184.300781 326.773438 184.996094 326.398438 C 185.726562 326.011719 186.5 325.703125 187.21875 325.316406 C 188.335938 324.726562 189.449219 324.136719 190.605469 323.632812 C 190.640625 323.617188 190.6875 323.601562 190.710938 323.578125 C 191.109375 323.078125 191.6875 323.117188 192.238281 323.097656 C 192.355469 323.089844 192.464844 323.132812 192.597656 323.148438 C 192.484375 323.703125 192.257812 324.136719 191.734375 324.355469 C 190.996094 324.648438 190.390625 325.171875 189.707031 325.535156 C 189.046875 325.894531 188.410156 326.300781 187.75 326.648438 C 186.773438 327.160156 185.796875 327.679688 184.78125 328.109375 C 184.28125 328.328125 183.808594 328.617188 183.320312 328.871094 C 182.550781 329.273438 181.6875 329.40625 180.867188 329.691406 C 180.539062 329.804688 180.152344 329.78125 179.792969 329.777344 C 179.652344 329.773438 179.492188 329.699219 179.367188 329.621094 C 179.132812 329.480469 178.929688 329.261719 178.695312 329.144531 C 178.484375 329.039062 178.441406 328.871094 178.40625 328.671875 C 178.308594 328.042969 178.457031 327.496094 178.875 327.019531 C 179.03125 326.84375 179.203125 326.675781 179.257812 326.433594 C 179.296875 326.253906 179.480469 326.097656 179.371094 325.878906 C 179.316406 325.761719 178.742188 325.53125 178.628906 325.609375 C 178.238281 325.894531 177.789062 325.777344 177.363281 325.871094 C 176.867188 325.984375 176.382812 326.128906 175.890625 326.300781 C 174.414062 326.804688 172.878906 327.140625 171.457031 327.84375 C 170.933594 327.871094 170.457031 328.078125 170.015625 328.332031 C 169.703125 328.503906 169.269531 328.0625 169.085938 328.585938 C 168.722656 328.738281 168.359375 328.878906 168 329.03125 C 167.671875 329.15625 167.34375 329.292969 167.015625 329.421875 C 166.242188 329.691406 165.527344 330.164062 164.679688 330.199219 C 164.464844 330.210938 164.34375 330.382812 164.195312 330.523438 C 164.070312 330.640625 163.945312 330.71875 163.773438 330.632812 C 163.664062 330.589844 163.5625 330.535156 163.449219 330.625 C 162.816406 331.105469 162.082031 331.386719 161.355469 331.675781 C 159.835938 332.3125 158.332031 332.996094 156.785156 333.546875 C 156.632812 333.605469 156.496094 333.71875 156.355469 333.730469 C 156.007812 333.75 155.75 333.871094 155.527344 334.121094 C 155.371094 334.296875 155.175781 334.261719 154.992188 334.152344 C 154.828125 334.054688 154.664062 334.109375 154.5625 334.222656 C 154.339844 334.488281 154.070312 334.609375 153.738281 334.617188 C 153.523438 334.617188 153.386719 334.78125 153.242188 334.921875 C 153.160156 334.996094 153.023438 335.113281 152.949219 335.09375 C 152.453125 334.929688 152.144531 335.210938 151.8125 335.503906 C 151.699219 335.605469 151.539062 335.6875 151.394531 335.695312 C 151.097656 335.722656 150.851562 335.796875 150.660156 336.035156 C 150.460938 336.285156 150.15625 336.230469 149.898438 336.292969 C 149.671875 336.339844 149.65625 336.855469 149.28125 336.578125 C 149.035156 336.699219 148.792969 336.808594 148.535156 336.929688 C 148.277344 337.042969 148.019531 337.140625 147.777344 337.261719 C 147.460938 337.410156 147.148438 337.582031 146.808594 337.699219 C 146.445312 337.828125 146.097656 338.050781 145.855469 338.386719 C 145.722656 338.574219 145.570312 338.617188 145.347656 338.511719 C 145.273438 338.464844 145.121094 338.535156 145.027344 338.574219 C 144.6875 338.714844 144.425781 338.945312 144.191406 339.234375 C 144.070312 339.394531 143.894531 339.464844 143.679688 339.5 C 142.566406 339.671875 142.394531 339.765625 141.394531 340.515625 C 141.210938 340.65625 140.992188 340.789062 140.765625 340.835938 C 140.519531 340.898438 140.296875 340.996094 140.179688 341.203125 C 139.96875 341.539062 139.601562 341.128906 139.457031 341.367188 C 139.292969 341.636719 139.164062 341.667969 138.894531 341.578125 C 138.6875 341.503906 138.742188 341.824219 138.601562 341.855469 C 138.496094 341.886719 138.347656 341.796875 138.265625 341.851562 C 137.457031 342.339844 136.527344 342.59375 135.6875 343.023438 C 135.074219 343.347656 134.515625 343.820312 133.789062 343.921875 C 133.683594 343.9375 133.546875 344.03125 133.503906 344.117188 C 133.316406 344.605469 132.765625 344.433594 132.472656 344.722656 C 132.1875 344.992188 131.839844 345.191406 131.425781 345.25 C 131.320312 345.269531 131.230469 345.378906 131.125 345.433594 C 130.605469 345.714844 130.078125 345.960938 129.503906 346.136719 C 128.726562 346.371094 127.996094 346.792969 127.253906 347.148438 C 126.4375 347.539062 125.613281 347.945312 124.722656 348.066406 C 124.105469 348.148438 123.527344 348.277344 122.964844 348.5 C 122.800781 348.570312 122.664062 348.503906 122.519531 348.441406 C 122.410156 348.402344 122.289062 348.40625 122.167969 348.390625 C 121.976562 348.367188 121.824219 348.660156 121.625 348.503906 C 121.261719 348.203125 120.742188 348.125 120.46875 347.683594 C 120.429688 347.628906 120.386719 347.523438 120.40625 347.472656 C 120.582031 346.996094 120.601562 346.46875 120.914062 346.035156 C 121.367188 345.386719 121.757812 344.695312 122.273438 344.117188 C 122.53125 343.8125 122.667969 343.4375 122.976562 343.179688 C 123.25 342.949219 123.347656 342.558594 123.570312 342.308594 C 124.328125 341.5 124.972656 340.617188 125.652344 339.765625 C 126.289062 338.960938 127.078125 338.296875 127.550781 337.359375 C 127.796875 336.882812 128.304688 336.554688 128.503906 336.015625 C 128.617188 335.722656 128.84375 335.472656 128.933594 335.179688 C 128.996094 334.996094 129.269531 334.777344 128.980469 334.542969 C 128.769531 334.363281 128.628906 334.621094 128.449219 334.621094 C 127.429688 334.605469 126.566406 335.191406 125.59375 335.308594 C 124.785156 335.808594 123.890625 336.109375 123 336.421875 C 122.304688 337.023438 121.394531 337.230469 120.621094 337.679688 C 119.832031 338.132812 119.046875 338.59375 118.246094 339.023438 C 117.828125 339.25 117.460938 339.554688 116.964844 339.632812 C 116.785156 339.664062 116.554688 339.785156 116.46875 339.933594 C 116.191406 340.382812 115.785156 340.558594 115.3125 340.679688 C 115.242188 340.699219 115.175781 340.761719 115.117188 340.8125 C 114.328125 341.417969 113.441406 341.851562 112.613281 342.386719 C 112.414062 342.519531 112.246094 342.707031 112.035156 342.792969 C 111.4375 343.003906 110.988281 343.472656 110.386719 343.660156 C 110.1875 343.722656 110.023438 343.800781 109.839844 343.703125 C 109.753906 343.660156 109.671875 343.679688 109.664062 343.785156 C 109.609375 344.496094 108.929688 344.507812 108.515625 344.820312 C 108.222656 344.714844 108.058594 344.785156 107.910156 345.09375 C 107.78125 345.375 107.503906 345.558594 107.203125 345.707031 C 106.714844 345.949219 106.226562 346.226562 105.765625 346.527344 C 104.40625 347.40625 102.976562 348.179688 101.628906 349.070312 C 100.601562 349.75 99.46875 350.230469 98.535156 351.039062 C 98.035156 351.089844 97.75 351.546875 97.304688 351.691406 C 97.105469 351.753906 96.90625 351.824219 96.820312 351.996094 C 96.648438 352.339844 96.226562 352.269531 96.011719 352.507812 C 95.796875 352.757812 95.519531 352.882812 95.253906 353.039062 C 94.953125 353.226562 94.78125 353.605469 94.347656 353.570312 C 93.816406 354.113281 92.972656 354.160156 92.46875 354.765625 C 92.023438 354.921875 91.589844 355.101562 91.226562 355.433594 C 90.90625 355.726562 90.40625 355.730469 90.140625 356.101562 C 89.359375 356.277344 88.71875 356.746094 88.03125 357.09375 C 87.355469 357.429688 86.667969 357.710938 85.976562 357.988281 C 85.054688 358.363281 83.488281 358.605469 82.609375 358.5 C 82.066406 358.433594 81.488281 358.347656 81.074219 357.964844 C 80.871094 357.785156 80.753906 357.636719 80.492188 357.808594 C 80.445312 357.832031 80.324219 357.828125 80.285156 357.792969 C 80.097656 357.648438 79.921875 357.492188 79.746094 357.324219 C 79.429688 357.015625 79.066406 356.75 78.820312 356.40625 C 78.613281 356.09375 78.824219 355.617188 78.554688 355.273438 C 78.6875 355.085938 78.457031 354.835938 78.558594 354.734375 C 78.980469 354.339844 78.820312 353.847656 78.855469 353.390625 C 78.859375 353.246094 78.910156 353.078125 78.996094 352.953125 C 79.417969 352.378906 79.632812 351.683594 80.128906 351.15625 C 80.230469 351.042969 80.316406 350.894531 80.367188 350.757812 C 80.738281 349.925781 81.261719 349.191406 81.828125 348.476562 C 82.054688 348.199219 82.226562 347.890625 82.414062 347.59375 C 82.796875 346.949219 83.367188 346.464844 83.761719 345.832031 C 84.441406 344.730469 85.394531 343.828125 85.972656 342.648438 C 86.039062 342.511719 86.160156 342.386719 86.261719 342.269531 C 86.839844 341.664062 87.265625 340.960938 87.691406 340.253906 C 87.769531 340.117188 87.855469 339.980469 87.96875 339.867188 C 88.785156 339.09375 89.355469 338.140625 90.023438 337.253906 C 90.601562 336.492188 91.179688 335.753906 91.808594 335.035156 C 91.933594 334.886719 92.054688 334.722656 92.128906 334.539062 C 92.277344 334.195312 92.511719 333.882812 92.800781 333.710938 C 93.4375 333.351562 93.664062 332.71875 93.964844 332.140625 C 94.148438 331.792969 94.332031 331.449219 94.589844 331.136719 C 95.015625 330.632812 95.367188 330.0625 95.601562 329.355469 C 95.066406 329.363281 94.644531 329.339844 94.238281 329.734375 C 93.875 330.078125 93.410156 330.316406 92.824219 330.113281 C 92.496094 330 92.148438 330.246094 92.042969 330.503906 C 91.84375 331.003906 91.511719 331.261719 91.015625 331.375 C 90.472656 331.90625 89.761719 332.1875 89.113281 332.570312 C 88.636719 332.847656 88.148438 333.078125 87.6875 333.367188 C 87.222656 333.65625 86.722656 333.863281 86.261719 334.175781 C 85.972656 334.371094 85.648438 334.523438 85.320312 334.683594 C 85.113281 334.792969 84.890625 334.875 84.679688 334.984375 C 84.121094 335.277344 83.644531 335.675781 83.058594 335.933594 C 82.523438 336.167969 82.066406 336.566406 81.558594 336.867188 C 81.015625 337.199219 80.46875 337.515625 79.914062 337.835938 C 79.40625 338.125 78.871094 338.40625 78.359375 338.699219 C 77.816406 339.015625 77.261719 339.324219 76.730469 339.664062 C 76.003906 340.136719 75.328125 340.699219 74.5625 341.078125 C 73.910156 341.402344 73.4375 341.917969 72.824219 342.277344 C 72.210938 342.632812 71.636719 343.046875 71.019531 343.40625 C 70.476562 343.710938 70 344.132812 69.492188 344.519531 C 69.332031 344.648438 68.984375 344.394531 68.96875 344.777344 C 68.738281 344.921875 68.496094 345.066406 68.277344 345.222656 C 68.082031 345.363281 67.914062 345.53125 67.730469 345.671875 C 67.511719 345.839844 67.292969 346.007812 67.0625 346.164062 C 66.867188 346.292969 66.644531 346.390625 66.449219 346.519531 C 66.21875 346.675781 66.015625 346.867188 65.785156 347.023438 C 65.589844 347.15625 65.34375 347.230469 65.171875 347.382812 C 64.316406 348.160156 63.296875 348.683594 62.3125 349.265625 C 62.011719 349.449219 61.75 349.714844 61.4375 349.875 C 61.089844 350.050781 60.898438 350.492188 60.429688 350.460938 C 60.269531 350.816406 59.945312 350.953125 59.613281 351.054688 C 59.097656 351.671875 58.390625 352.046875 57.785156 352.546875 C 57.363281 352.890625 56.890625 353.183594 56.441406 353.507812 C 56.28125 353.625 56.105469 353.714844 55.96875 353.855469 C 55.644531 354.195312 55.316406 354.527344 54.785156 354.4375 C 54.519531 354.605469 54.175781 354.6875 54.085938 355.039062 C 54.007812 355.328125 53.804688 355.507812 53.613281 355.710938 C 53.476562 355.851562 53.222656 355.566406 53.144531 355.878906 C 53.074219 356.148438 52.777344 356.152344 52.617188 356.328125 C 52.496094 356.480469 52.257812 356.539062 52.160156 356.6875 C 51.984375 356.984375 51.78125 357.175781 51.410156 357.164062 C 51.242188 357.160156 51.128906 357.273438 51.105469 357.464844 C 51.089844 357.621094 51.0625 357.769531 50.910156 357.871094 C 49.921875 358.527344 49.183594 359.488281 48.230469 360.1875 C 47.613281 360.652344 47.074219 361.257812 46.3125 361.527344 C 46.242188 361.554688 46.136719 361.621094 46.136719 361.65625 C 46.171875 362.277344 45.585938 362.238281 45.273438 362.457031 C 45.078125 362.589844 44.871094 362.707031 44.726562 362.90625 C 44.425781 363.308594 44.191406 363.785156 43.8125 364.105469 C 43.449219 364.414062 43.09375 364.722656 42.765625 365.0625 C 42.746094 365.089844 42.710938 365.136719 42.6875 365.140625 C 42.628906 365.15625 42.558594 365.148438 42.496094 365.136719 C 42.472656 365.128906 42.445312 365.082031 42.441406 365.035156 C 42.402344 364.761719 42.375 364.476562 42.589844 364.246094 C 42.804688 364.019531 42.980469 363.722656 43.230469 363.542969 C 43.863281 363.113281 44.320312 362.511719 44.839844 361.96875 C 44.898438 361.90625 44.941406 361.832031 45 361.792969 C 45.53125 361.5 45.800781 360.957031 46.21875 360.5625 C 46.300781 360.488281 46.351562 360.351562 46.445312 360.324219 C 46.65625 360.238281 46.945312 360.246094 46.746094 359.886719 C 46.746094 359.886719 47.640625 359.023438 47.652344 359.023438 C 47.757812 358.980469 47.910156 358.960938 47.953125 358.875 C 48.121094 358.628906 48.144531 358.230469 48.609375 358.394531 C 48.75 358.160156 48.90625 357.9375 49.230469 357.941406 C 49.707031 357.496094 50.398438 357.253906 50.621094 356.535156 C 50.660156 356.402344 50.84375 356.238281 50.960938 356.230469 C 51.378906 356.207031 51.578125 355.898438 51.824219 355.644531 C 51.960938 355.503906 52.082031 355.332031 52.246094 355.226562 C 53.261719 354.605469 54.023438 353.703125 54.925781 352.945312 C 55.625 352.367188 56.257812 351.710938 57.042969 351.261719 C 57.292969 350.792969 57.90625 350.890625 58.207031 350.5 C 58.511719 350.125 58.863281 349.820312 59.269531 349.570312 C 59.371094 349.503906 59.4375 349.390625 59.53125 349.339844 C 60.75 348.683594 61.824219 347.796875 62.949219 347.015625 C 63.773438 346.78125 64.246094 346 65.015625 345.679688 C 65.203125 345.382812 65.597656 345.421875 65.816406 345.230469 C 66.226562 344.871094 66.742188 344.699219 67.113281 344.285156 C 67.371094 343.992188 67.71875 343.78125 68.066406 343.585938 C 68.515625 343.320312 68.921875 343.046875 69.308594 342.6875 C 69.738281 342.292969 70.285156 342.035156 70.757812 341.675781 C 71.191406 341.328125 71.652344 341.027344 72.140625 340.761719 C 72.59375 340.507812 72.992188 340.199219 73.417969 339.910156 C 74.453125 339.183594 75.515625 338.511719 76.589844 337.84375 C 78.355469 336.726562 80.164062 335.667969 81.980469 334.621094 C 82.929688 334.078125 83.839844 333.453125 84.789062 332.90625 C 85.753906 332.363281 86.699219 331.773438 87.675781 331.261719 C 88.640625 330.753906 89.574219 330.1875 90.605469 329.78125 C 90.886719 329.671875 91.125 329.429688 91.390625 329.273438 C 92.867188 328.351562 94.46875 327.6875 96.125 327.1875 C 96.644531 327.027344 97.230469 327.078125 97.78125 327.046875 C 98.054688 327.03125 98.300781 327.398438 98.285156 327.710938 C 98.238281 328.5625 97.898438 329.335938 97.507812 330.050781 C 96.894531 331.292969 96.089844 332.511719 95.25 333.707031 C 95.160156 333.832031 95.035156 333.945312 94.933594 334.058594 C 94.273438 334.800781 93.742188 335.621094 93.203125 336.453125 C 93.160156 336.515625 93.128906 336.585938 93.074219 336.648438 C 92.3125 337.410156 91.792969 338.359375 91.097656 339.175781 C 90.492188 339.894531 89.925781 340.652344 89.410156 341.449219 C 88.980469 342.105469 88.476562 342.71875 88 343.355469 C 87.621094 343.867188 87.242188 344.367188 86.863281 344.878906 C 86.609375 345.230469 86.390625 345.601562 86.125 345.949219 C 85.855469 346.289062 85.574219 346.601562 85.359375 346.996094 C 85.164062 347.355469 84.695312 347.539062 84.589844 347.996094 C 84.472656 348.484375 83.972656 348.726562 83.769531 349.15625 C 83.578125 349.5625 83.234375 349.84375 83.015625 350.214844 C 82.339844 351.363281 81.453125 352.382812 80.972656 353.667969 C 80.796875 354.128906 81.003906 354.621094 80.753906 355.054688 C 80.832031 355.359375 80.894531 355.65625 80.996094 355.949219 C 81.023438 356.03125 81.171875 356.09375 81.269531 356.113281 C 81.761719 356.203125 82.277344 356.234375 82.777344 356.375 C 83.421875 356.554688 84.015625 356.519531 84.625 356.269531 C 84.882812 356.171875 85.15625 356.132812 85.414062 356.058594 C 86.132812 355.839844 86.820312 355.546875 87.453125 355.140625 C 87.742188 354.957031 88.109375 354.878906 88.421875 354.703125 C 89.035156 354.347656 89.679688 354.070312 90.277344 353.679688 C 91.269531 353.039062 92.328125 352.476562 93.34375 351.878906 C 94.398438 351.269531 95.4375 350.625 96.425781 349.890625 C 96.484375 349.839844 96.566406 349.808594 96.632812 349.769531 C 98.054688 348.914062 99.480469 348.054688 100.890625 347.1875 C 101.328125 346.921875 101.726562 346.554688 102.183594 346.382812 C 102.6875 346.1875 103.078125 345.902344 103.488281 345.582031 C 103.578125 345.503906 103.695312 345.460938 103.800781 345.40625 C 104.464844 345.058594 105.113281 344.699219 105.734375 344.292969 C 106.371094 343.886719 107.046875 343.5625 107.679688 343.167969 C 108.339844 342.761719 109.167969 342.59375 109.667969 341.933594 C 110.355469 341.820312 110.738281 341.167969 111.421875 340.996094 C 111.808594 340.902344 112.136719 340.515625 112.507812 340.300781 C 114.636719 339.082031 116.757812 337.851562 118.902344 336.652344 C 119.792969 336.160156 120.726562 335.738281 121.660156 335.3125 C 122.664062 334.875 123.652344 334.375 124.695312 334.042969 C 125.332031 333.839844 125.976562 333.660156 126.601562 333.457031 C 127.761719 333.082031 128.949219 333.15625 130.128906 333.054688 C 130.511719 333.019531 130.585938 333.125 130.46875 333.539062 C 130.417969 333.707031 130.414062 333.863281 130.5625 333.9375 C 130.757812 334.035156 130.882812 334.125 130.8125 334.378906 C 130.507812 335.542969 130.019531 336.601562 129.183594 337.484375 C 129.160156 337.507812 129.125 337.535156 129.105469 337.574219 C 128.941406 337.832031 128.777344 338.105469 128.597656 338.367188 C 128.433594 338.625 128.03125 338.683594 127.980469 339.046875 C 127.179688 339.929688 126.632812 341.011719 125.757812 341.828125 C 125.324219 342.234375 124.941406 342.660156 124.675781 343.191406 C 124.578125 343.398438 124.421875 343.601562 124.253906 343.765625 C 123.617188 344.375 123.15625 345.117188 122.671875 345.839844 C 122.453125 346.210938 122.308594 346.636719 122.128906 347.015625 Z M 122.128906 347.015625 " fill-opacity="1" fill-rule="nonzero"/></g></g></g></svg>