<svg xmlns="http://www.w3.org/2000/svg" xmlns:xlink="http://www.w3.org/1999/xlink" width="1000" zoomAndPan="magnify" viewBox="0 0 750 374.999991" height="500" preserveAspectRatio="xMidYMid meet" version="1.0"><defs><g/><clipPath id="de782f9598"><path d="M 62 245 L 514 245 L 514 372 L 62 372 Z M 62 245 " clip-rule="nonzero"/></clipPath><clipPath id="2755de34e9"><path d="M 56.09375 266.34375 L 513.617188 240.550781 L 519.527344 345.382812 L 62.003906 371.175781 Z M 56.09375 266.34375 " clip-rule="nonzero"/></clipPath><clipPath id="f41be5b37d"><path d="M 56.09375 266.34375 L 513.617188 240.550781 L 519.527344 345.382812 L 62.003906 371.175781 Z M 56.09375 266.34375 " clip-rule="nonzero"/></clipPath><clipPath id="fa64acf43f"><path d="M 128.464844 150.113281 L 230.464844 150.113281 L 230.464844 252.113281 L 128.464844 252.113281 Z M 128.464844 150.113281 " clip-rule="nonzero"/></clipPath><clipPath id="a2d40f25a1"><path d="M 561.117188 150.113281 L 663.117188 150.113281 L 663.117188 252.113281 L 561.117188 252.113281 Z M 561.117188 150.113281 " clip-rule="nonzero"/></clipPath><clipPath id="3c2c78ace3"><path d="M 512.652344 236.9375 L 522.859375 236.9375 L 522.859375 258.902344 L 512.652344 258.902344 Z M 512.652344 236.9375 " clip-rule="nonzero"/></clipPath><clipPath id="f2025ef5b1"><path d="M 512.703125 255.75 C 513.507812 243.152344 514.714844 239.9375 516.1875 238.460938 C 516.992188 237.523438 518.199219 236.855469 519.269531 236.988281 C 520.476562 237.121094 522.351562 238.730469 522.753906 239.9375 C 523.023438 240.875 522.488281 242.484375 521.816406 243.285156 C 521.148438 243.957031 519.539062 244.492188 518.601562 244.359375 C 517.527344 244.226562 516.1875 243.285156 515.785156 242.347656 C 515.382812 241.277344 515.921875 238.730469 516.722656 237.925781 C 517.394531 237.257812 519.136719 236.855469 520.074219 237.121094 C 521.148438 237.523438 522.621094 239.402344 522.753906 240.742188 C 523.023438 242.214844 521.148438 243.6875 520.476562 245.699219 C 519.671875 248.914062 520.34375 255.75 518.734375 257.625 C 517.796875 258.699219 516.054688 259.101562 514.984375 258.699219 C 514.042969 258.429688 512.703125 255.75 512.703125 255.75 " clip-rule="nonzero"/></clipPath><clipPath id="27f03f630e"><path d="M 509.601562 242.820312 L 521.972656 242.820312 L 521.972656 258.660156 L 509.601562 258.660156 Z M 509.601562 242.820312 " clip-rule="nonzero"/></clipPath><clipPath id="a547d472db"><path d="M 509.621094 253.875 C 518.066406 242.617188 519.269531 242.75 520.074219 243.019531 C 520.746094 243.152344 521.414062 243.6875 521.683594 244.359375 C 522.085938 245.296875 521.949219 247.574219 521.148438 248.511719 C 520.609375 249.183594 519.136719 249.585938 518.199219 249.453125 C 517.527344 249.316406 516.722656 249.050781 516.324219 248.378906 C 515.785156 247.710938 515.25 246.234375 515.519531 245.296875 C 515.652344 244.492188 516.589844 243.285156 517.527344 243.019531 C 518.601562 242.617188 520.878906 243.285156 521.550781 244.089844 C 522.085938 244.894531 521.949219 246.636719 521.414062 248.246094 C 520.476562 250.925781 516.324219 257.222656 514.042969 258.296875 C 512.703125 258.832031 511.097656 258.699219 510.425781 258.027344 C 509.621094 257.359375 509.621094 253.875 509.621094 253.875 " clip-rule="nonzero"/></clipPath><clipPath id="17c14bd32d"><path d="M 512.097656 239.289062 L 523.496094 239.289062 L 523.496094 256.476562 L 512.097656 256.476562 Z M 512.097656 239.289062 " clip-rule="nonzero"/></clipPath><clipPath id="3cc967406c"><path d="M 512.101562 252.199219 C 519.203125 239.066406 521.078125 239.066406 522.019531 239.734375 C 522.957031 240.273438 523.625 242.550781 523.359375 243.621094 C 523.089844 244.558594 521.882812 245.496094 520.945312 245.765625 C 520.007812 246.035156 518.535156 245.632812 517.863281 245.097656 C 517.328125 244.558594 516.925781 243.890625 516.792969 243.21875 C 516.65625 242.28125 516.925781 240.808594 517.59375 240.136719 C 518.535156 239.46875 520.8125 239.199219 521.75 239.46875 C 522.421875 239.734375 522.957031 240.40625 523.222656 241.074219 C 523.492188 241.878906 523.359375 242.953125 522.957031 244.292969 C 522.285156 246.972656 519.335938 254.074219 517.195312 255.683594 C 516.121094 256.488281 514.511719 256.621094 513.574219 256.085938 C 512.636719 255.546875 512.101562 252.199219 512.101562 252.199219 " clip-rule="nonzero"/></clipPath><clipPath id="df4c955105"><path d="M 497 104 L 506 104 L 506 112 L 497 112 Z M 497 104 " clip-rule="nonzero"/></clipPath><clipPath id="46805921d0"><path d="M 512.078125 245.761719 L 428.816406 162.5 L 512.609375 78.707031 L 595.871094 161.96875 Z M 512.078125 245.761719 " clip-rule="nonzero"/></clipPath><clipPath id="6712e382bf"><path d="M 595.789062 162.054688 L 512.527344 78.792969 L 428.734375 162.582031 L 511.996094 245.84375 Z M 595.789062 162.054688 " clip-rule="nonzero"/></clipPath><clipPath id="df1c6d25d4"><path d="M 504 86 L 520 86 L 520 116 L 504 116 Z M 504 86 " clip-rule="nonzero"/></clipPath><clipPath id="c7c47c5ffc"><path d="M 512.078125 245.761719 L 428.816406 162.5 L 512.609375 78.707031 L 595.871094 161.96875 Z M 512.078125 245.761719 " clip-rule="nonzero"/></clipPath><clipPath id="69dc3c0b94"><path d="M 595.789062 162.054688 L 512.527344 78.792969 L 428.734375 162.582031 L 511.996094 245.84375 Z M 595.789062 162.054688 " clip-rule="nonzero"/></clipPath><clipPath id="2727140e9e"><path d="M 494 100 L 500 100 L 500 164 L 494 164 Z M 494 100 " clip-rule="nonzero"/></clipPath><clipPath id="6ed16792ab"><path d="M 512.078125 245.761719 L 428.816406 162.5 L 512.609375 78.707031 L 595.871094 161.96875 Z M 512.078125 245.761719 " clip-rule="nonzero"/></clipPath><clipPath id="9eb15cf5d0"><path d="M 595.789062 162.054688 L 512.527344 78.792969 L 428.734375 162.582031 L 511.996094 245.84375 Z M 595.789062 162.054688 " clip-rule="nonzero"/></clipPath><clipPath id="2483a84beb"><path d="M 504 101 L 520 101 L 520 246 L 504 246 Z M 504 101 " clip-rule="nonzero"/></clipPath><clipPath id="c76dd302c5"><path d="M 512.078125 245.761719 L 428.816406 162.5 L 512.609375 78.707031 L 595.871094 161.96875 Z M 512.078125 245.761719 " clip-rule="nonzero"/></clipPath><clipPath id="4cdb6cfb95"><path d="M 595.789062 162.054688 L 512.527344 78.792969 L 428.734375 162.582031 L 511.996094 245.84375 Z M 595.789062 162.054688 " clip-rule="nonzero"/></clipPath><clipPath id="e239a3acc9"><path d="M 504 225 L 520 225 L 520 246 L 504 246 Z M 504 225 " clip-rule="nonzero"/></clipPath><clipPath id="fc588ae3b2"><path d="M 512.078125 245.761719 L 428.816406 162.5 L 512.609375 78.707031 L 595.871094 161.96875 Z M 512.078125 245.761719 " clip-rule="nonzero"/></clipPath><clipPath id="edeecf0c7e"><path d="M 595.789062 162.054688 L 512.527344 78.792969 L 428.734375 162.582031 L 511.996094 245.84375 Z M 595.789062 162.054688 " clip-rule="nonzero"/></clipPath><clipPath id="f0bbd04d0b"><path d="M 509 237 L 516 237 L 516 246 L 509 246 Z M 509 237 " clip-rule="nonzero"/></clipPath><clipPath id="79f4b62f63"><path d="M 512.078125 245.761719 L 428.816406 162.5 L 512.609375 78.707031 L 595.871094 161.96875 Z M 512.078125 245.761719 " clip-rule="nonzero"/></clipPath><clipPath id="9c1a1eb956"><path d="M 595.789062 162.054688 L 512.527344 78.792969 L 428.734375 162.582031 L 511.996094 245.84375 Z M 595.789062 162.054688 " clip-rule="nonzero"/></clipPath><clipPath id="121d83ee85"><path d="M 504 101 L 520 101 L 520 114 L 504 114 Z M 504 101 " clip-rule="nonzero"/></clipPath><clipPath id="76f7661880"><path d="M 512.078125 245.761719 L 428.816406 162.5 L 512.609375 78.707031 L 595.871094 161.96875 Z M 512.078125 245.761719 " clip-rule="nonzero"/></clipPath><clipPath id="e0d057f1e8"><path d="M 595.789062 162.054688 L 512.527344 78.792969 L 428.734375 162.582031 L 511.996094 245.84375 Z M 595.789062 162.054688 " clip-rule="nonzero"/></clipPath><clipPath id="4bb8419f19"><path d="M 504.257812 122.675781 L 520 122.675781 L 520 138.332031 L 504.257812 138.332031 Z M 504.257812 122.675781 " clip-rule="nonzero"/></clipPath><clipPath id="cc88c1ae7f"><path d="M 504.257812 130.601562 L 520 130.601562 L 520 146.257812 L 504.257812 146.257812 Z M 504.257812 130.601562 " clip-rule="nonzero"/></clipPath><clipPath id="cfd5d148a6"><path d="M 504.257812 138.527344 L 520 138.527344 L 520 154.183594 L 504.257812 154.183594 Z M 504.257812 138.527344 " clip-rule="nonzero"/></clipPath><clipPath id="888f2a3d0e"><path d="M 504.394531 146.453125 L 520.144531 146.453125 L 520.144531 162.109375 L 504.394531 162.109375 Z M 504.394531 146.453125 " clip-rule="nonzero"/></clipPath></defs><g fill="#ffffff" fill-opacity="1"><g transform="translate(40.627489, 241.410787)"><g><path d="M 13.3125 -75.90625 L 13.3125 -104.15625 L 39.5 -104.15625 L 39.5 -75.90625 L 55.484375 -75.90625 L 55.484375 -55.921875 L 39.5 -55.921875 L 39.5 -31.8125 C 39.5 -24.8125 41.472656 -21.3125 45.421875 -21.3125 C 46.410156 -21.3125 47.445312 -21.503906 48.53125 -21.890625 C 49.613281 -22.285156 50.453125 -22.679688 51.046875 -23.078125 L 51.9375 -23.671875 L 58.4375 -2.515625 C 52.820312 0.640625 46.410156 2.21875 39.203125 2.21875 C 34.273438 2.21875 30.035156 1.359375 26.484375 -0.359375 C 22.929688 -2.085938 20.242188 -4.40625 18.421875 -7.3125 C 16.597656 -10.226562 15.289062 -13.289062 14.5 -16.5 C 13.707031 -19.707031 13.3125 -23.132812 13.3125 -26.78125 L 13.3125 -55.921875 L 2.375 -55.921875 L 2.375 -75.90625 Z M 13.3125 -75.90625 "/></g></g></g><g fill="#ffffff" fill-opacity="1"><g transform="translate(87.527226, 241.410787)"><g><path d="M 8.875 0 L 8.875 -127.234375 L 35.0625 -127.234375 L 35.0625 -67.90625 L 35.359375 -67.90625 C 42.160156 -74.71875 49.410156 -78.125 57.109375 -78.125 C 60.859375 -78.125 64.582031 -77.628906 68.28125 -76.640625 C 71.976562 -75.648438 75.523438 -74.117188 78.921875 -72.046875 C 82.328125 -69.984375 85.09375 -67.050781 87.21875 -63.25 C 89.34375 -59.445312 90.40625 -55.035156 90.40625 -50.015625 L 90.40625 0 L 64.21875 0 L 64.21875 -42.90625 C 64.21875 -46.851562 62.957031 -50.304688 60.4375 -53.265625 C 57.925781 -56.222656 54.644531 -57.703125 50.59375 -57.703125 C 46.65625 -57.703125 43.082031 -56.171875 39.875 -53.109375 C 36.664062 -50.054688 35.0625 -46.65625 35.0625 -42.90625 L 35.0625 0 Z M 8.875 0 "/></g></g></g><g fill="#ffffff" fill-opacity="1"><g transform="translate(173.782449, 241.410787)"><g><path d="M 85.671875 -34.328125 L 30.625 -34.328125 C 30.625 -28.992188 32.347656 -25.046875 35.796875 -22.484375 C 39.253906 -19.921875 43.003906 -18.640625 47.046875 -18.640625 C 51.285156 -18.640625 54.640625 -19.207031 57.109375 -20.34375 C 59.578125 -21.476562 62.390625 -23.722656 65.546875 -27.078125 L 84.484375 -17.609375 C 76.585938 -4.390625 63.46875 2.21875 45.125 2.21875 C 33.6875 2.21875 23.875 -1.703125 15.6875 -9.546875 C 7.5 -17.390625 3.40625 -26.832031 3.40625 -37.875 C 3.40625 -48.925781 7.5 -58.394531 15.6875 -66.28125 C 23.875 -74.175781 33.6875 -78.125 45.125 -78.125 C 57.15625 -78.125 66.941406 -74.644531 74.484375 -67.6875 C 82.035156 -60.738281 85.8125 -50.800781 85.8125 -37.875 C 85.8125 -36.101562 85.765625 -34.921875 85.671875 -34.328125 Z M 31.359375 -48.828125 L 60.21875 -48.828125 C 59.625 -52.773438 58.066406 -55.804688 55.546875 -57.921875 C 53.035156 -60.046875 49.804688 -61.109375 45.859375 -61.109375 C 41.523438 -61.109375 38.070312 -59.972656 35.5 -57.703125 C 32.9375 -55.429688 31.554688 -52.472656 31.359375 -48.828125 Z M 31.359375 -48.828125 "/></g></g></g><g fill="#ffffff" fill-opacity="1"><g transform="translate(251.456409, 241.410787)"><g/></g></g><g fill="#ffffff" fill-opacity="1"><g transform="translate(280.305891, 241.410787)"><g><path d="M 41.875 -78.125 C 46.207031 -78.125 50.492188 -77.628906 54.734375 -76.640625 C 58.984375 -75.648438 62.144531 -74.664062 64.21875 -73.6875 L 67.3125 -72.203125 L 58.734375 -55.03125 C 52.816406 -58.1875 47.195312 -59.765625 41.875 -59.765625 C 38.914062 -59.765625 36.816406 -59.441406 35.578125 -58.796875 C 34.347656 -58.160156 33.734375 -56.957031 33.734375 -55.1875 C 33.734375 -54.789062 33.78125 -54.394531 33.875 -54 C 33.976562 -53.601562 34.175781 -53.234375 34.46875 -52.890625 C 34.769531 -52.546875 35.039062 -52.25 35.28125 -52 C 35.53125 -51.757812 35.953125 -51.488281 36.546875 -51.1875 C 37.140625 -50.894531 37.609375 -50.671875 37.953125 -50.515625 C 38.296875 -50.367188 38.859375 -50.148438 39.640625 -49.859375 C 40.429688 -49.566406 41.023438 -49.34375 41.421875 -49.1875 C 41.816406 -49.039062 42.484375 -48.816406 43.421875 -48.515625 C 44.359375 -48.222656 45.070312 -48.03125 45.5625 -47.9375 C 48.625 -47.050781 51.289062 -46.0625 53.5625 -44.96875 C 55.832031 -43.882812 58.222656 -42.40625 60.734375 -40.53125 C 63.242188 -38.664062 65.191406 -36.300781 66.578125 -33.4375 C 67.960938 -30.570312 68.65625 -27.316406 68.65625 -23.671875 C 68.65625 -6.410156 56.671875 2.21875 32.703125 2.21875 C 27.273438 2.21875 22.117188 1.378906 17.234375 -0.296875 C 12.347656 -1.972656 8.820312 -3.648438 6.65625 -5.328125 L 3.40625 -7.984375 L 14.0625 -25.890625 C 14.84375 -25.203125 15.875 -24.390625 17.15625 -23.453125 C 18.445312 -22.515625 20.765625 -21.226562 24.109375 -19.59375 C 27.460938 -17.96875 30.375 -17.15625 32.84375 -17.15625 C 38.269531 -17.15625 40.984375 -18.984375 40.984375 -22.640625 C 40.984375 -24.316406 40.289062 -25.625 38.90625 -26.5625 C 37.53125 -27.5 35.1875 -28.554688 31.875 -29.734375 C 28.570312 -30.921875 25.984375 -32.007812 24.109375 -33 C 19.378906 -35.457031 15.632812 -38.238281 12.875 -41.34375 C 10.113281 -44.457031 8.734375 -48.578125 8.734375 -53.703125 C 8.734375 -61.398438 11.710938 -67.394531 17.671875 -71.6875 C 23.640625 -75.976562 31.707031 -78.125 41.875 -78.125 Z M 41.875 -78.125 "/></g></g></g><g fill="#ffffff" fill-opacity="1"><g transform="translate(341.557057, 241.410787)"><g><path d="M 95.578125 -75.90625 L 59.484375 -39.65625 L 99.125 0 L 65.390625 0 L 35.0625 -30.328125 L 35.0625 0 L 8.875 0 L 8.875 -127.234375 L 35.0625 -127.234375 L 35.0625 -49.421875 L 61.546875 -75.90625 Z M 95.578125 -75.90625 "/></g></g></g><g fill="#ffffff" fill-opacity="1"><g transform="translate(425.592977, 241.410787)"><g><path d="M 8.875 0 L 8.875 -75.90625 L 35.0625 -75.90625 L 35.0625 -64.953125 L 35.359375 -64.953125 C 35.554688 -65.347656 35.875 -65.835938 36.3125 -66.421875 C 36.757812 -67.015625 37.722656 -68.050781 39.203125 -69.53125 C 40.679688 -71.007812 42.257812 -72.34375 43.9375 -73.53125 C 45.613281 -74.71875 47.785156 -75.78125 50.453125 -76.71875 C 53.117188 -77.65625 55.832031 -78.125 58.59375 -78.125 C 61.445312 -78.125 64.253906 -77.726562 67.015625 -76.9375 C 69.785156 -76.144531 71.8125 -75.351562 73.09375 -74.5625 L 75.15625 -73.390625 L 64.21875 -51.1875 C 60.957031 -53.945312 56.414062 -55.328125 50.59375 -55.328125 C 47.4375 -55.328125 44.722656 -54.632812 42.453125 -53.25 C 40.191406 -51.875 38.59375 -50.203125 37.65625 -48.234375 C 36.71875 -46.265625 36.050781 -44.585938 35.65625 -43.203125 C 35.257812 -41.816406 35.0625 -40.734375 35.0625 -39.953125 L 35.0625 0 Z M 8.875 0 "/></g></g></g><g fill="#ffffff" fill-opacity="1"><g transform="translate(487.731892, 241.410787)"><g/></g></g><g fill="#ffffff" fill-opacity="1"><g transform="translate(516.581374, 241.410787)"><g><path d="M 87 -66.4375 C 94.101562 -58.644531 97.65625 -49.125 97.65625 -37.875 C 97.65625 -26.632812 94.101562 -17.140625 87 -9.390625 C 79.894531 -1.648438 70.867188 2.21875 59.921875 2.21875 C 49.859375 2.21875 41.570312 -1.378906 35.0625 -8.578125 L 34.765625 -8.578125 L 34.765625 0 L 8.875 0 L 8.875 -127.234375 L 35.0625 -127.234375 L 35.0625 -68.65625 C 41.570312 -74.96875 49.859375 -78.125 59.921875 -78.125 C 70.867188 -78.125 79.894531 -74.226562 87 -66.4375 Z M 64.9375 -25.078125 C 68.195312 -28.378906 69.828125 -32.644531 69.828125 -37.875 C 69.828125 -43.101562 68.125 -47.394531 64.71875 -50.75 C 61.320312 -54.101562 57.109375 -55.78125 52.078125 -55.78125 C 47.148438 -55.78125 42.984375 -54.101562 39.578125 -50.75 C 36.171875 -47.394531 34.46875 -43.101562 34.46875 -37.875 C 34.46875 -32.75 36.117188 -28.507812 39.421875 -25.15625 C 42.734375 -21.800781 46.953125 -20.125 52.078125 -20.125 C 57.398438 -20.125 61.6875 -21.773438 64.9375 -25.078125 Z M 64.9375 -25.078125 "/></g></g></g><g fill="#ffffff" fill-opacity="1"><g transform="translate(606.091587, 241.410787)"><g><path d="M 85.671875 -34.328125 L 30.625 -34.328125 C 30.625 -28.992188 32.347656 -25.046875 35.796875 -22.484375 C 39.253906 -19.921875 43.003906 -18.640625 47.046875 -18.640625 C 51.285156 -18.640625 54.640625 -19.207031 57.109375 -20.34375 C 59.578125 -21.476562 62.390625 -23.722656 65.546875 -27.078125 L 84.484375 -17.609375 C 76.585938 -4.390625 63.46875 2.21875 45.125 2.21875 C 33.6875 2.21875 23.875 -1.703125 15.6875 -9.546875 C 7.5 -17.390625 3.40625 -26.832031 3.40625 -37.875 C 3.40625 -48.925781 7.5 -58.394531 15.6875 -66.28125 C 23.875 -74.175781 33.6875 -78.125 45.125 -78.125 C 57.15625 -78.125 66.941406 -74.644531 74.484375 -67.6875 C 82.035156 -60.738281 85.8125 -50.800781 85.8125 -37.875 C 85.8125 -36.101562 85.765625 -34.921875 85.671875 -34.328125 Z M 31.359375 -48.828125 L 60.21875 -48.828125 C 59.625 -52.773438 58.066406 -55.804688 55.546875 -57.921875 C 53.035156 -60.046875 49.804688 -61.109375 45.859375 -61.109375 C 41.523438 -61.109375 38.070312 -59.972656 35.5 -57.703125 C 32.9375 -55.429688 31.554688 -52.472656 31.359375 -48.828125 Z M 31.359375 -48.828125 "/></g></g></g><g clip-path="url(#de782f9598)"><g clip-path="url(#2755de34e9)"><g clip-path="url(#f41be5b37d)"><path fill="#ffffff" d="M 301.742188 316.839844 C 302.96875 317.5625 304.121094 318.25 305.425781 317.246094 C 307.230469 317.359375 308.800781 316.585938 310.457031 316.027344 C 313.453125 314.996094 316.402344 313.824219 319.351562 312.617188 C 322.050781 311.496094 324.875 310.617188 327.449219 309.144531 C 329.882812 307.75 332.429688 306.386719 335.109375 305.515625 C 337.257812 304.820312 339.210938 303.777344 341.28125 302.90625 C 343.246094 302.078125 345.046875 300.933594 347.015625 300.140625 C 349.960938 298.933594 352.582031 296.992188 355.695312 296.132812 C 356.574219 295.867188 357.328125 295.179688 358.167969 294.773438 C 359.738281 293.964844 361.292969 292.945312 362.957031 292.492188 C 364.621094 292.039062 365.609375 290.476562 367.359375 290.304688 C 371.898438 288.039062 376.476562 285.839844 381.140625 283.855469 C 381.457031 283.730469 381.769531 283.496094 382.082031 283.300781 C 384.613281 281.71875 387.3125 280.5625 390.085938 279.472656 C 391.070312 279.09375 392.019531 278.71875 392.875 277.988281 C 393.628906 277.332031 394.761719 277.019531 395.789062 276.78125 C 397.984375 276.226562 399.9375 275.183594 401.804688 273.964844 C 402.082031 273.769531 402.433594 273.640625 402.75 273.515625 C 406.433594 271.980469 410.152344 270.441406 413.835938 268.871094 C 415.132812 268.328125 416.34375 267.472656 417.6875 267.109375 C 419.066406 266.742188 420.40625 266.308594 421.621094 265.558594 C 422.109375 265.277344 422.757812 265.3125 423.320312 265.101562 C 424.511719 264.640625 425.703125 264.105469 426.894531 263.574219 C 427.980469 263.082031 429.023438 262.484375 430.117188 262.132812 C 436.015625 260.367188 441.539062 257.71875 447.269531 255.566406 C 449.484375 254.722656 451.703125 253.953125 453.96875 253.355469 C 455.808594 252.859375 457.484375 252.007812 459.285156 251.476562 C 461.402344 250.820312 463.578125 250.554688 465.652344 249.789062 C 468.5 248.730469 471.484375 248.742188 474.421875 248.613281 C 475.136719 248.574219 475.816406 248.535156 476.515625 248.855469 C 478.648438 249.738281 478.703125 250.058594 478.84375 251.953125 C 478.964844 253.421875 478.789062 254.757812 478.144531 256.085938 C 477.566406 257.269531 477.128906 258.480469 476.621094 259.65625 C 477.511719 260.144531 478.441406 260.054688 479.140625 259.730469 C 480.75 258.992188 482.53125 258.75 484.097656 257.871094 C 486.152344 256.75 488.449219 256.046875 490.539062 254.921875 C 492.734375 253.757812 495.054688 252.835938 497.214844 251.671875 C 500.5625 249.90625 503.910156 248.136719 507.378906 246.613281 C 507.484375 246.570312 507.625 246.527344 507.691406 246.449219 C 508.902344 244.945312 510.628906 245.0625 512.277344 245.007812 C 512.636719 244.988281 512.96875 245.113281 513.363281 245.160156 C 513.027344 246.832031 512.347656 248.125 510.769531 248.789062 C 508.554688 249.667969 506.742188 251.242188 504.683594 252.328125 C 502.699219 253.410156 500.792969 254.632812 498.804688 255.675781 C 495.875 257.207031 492.945312 258.773438 489.894531 260.058594 C 488.386719 260.714844 486.964844 261.585938 485.5 262.351562 C 483.199219 263.558594 480.597656 263.957031 478.132812 264.8125 C 477.148438 265.15625 475.996094 265.078125 474.917969 265.066406 C 474.484375 265.054688 474.003906 264.832031 473.632812 264.601562 C 472.925781 264.171875 472.316406 263.527344 471.613281 263.171875 C 470.984375 262.847656 470.847656 262.351562 470.742188 261.746094 C 470.457031 259.859375 470.902344 258.21875 472.152344 256.785156 C 472.625 256.253906 473.136719 255.757812 473.308594 255.03125 C 473.421875 254.488281 473.972656 254.023438 473.644531 253.359375 C 473.484375 253.011719 471.757812 252.316406 471.410156 252.554688 C 470.238281 253.410156 468.890625 253.054688 467.613281 253.339844 C 466.125 253.675781 464.675781 254.117188 463.195312 254.632812 C 458.757812 256.140625 454.144531 257.152344 449.882812 259.261719 C 448.308594 259.347656 446.871094 259.96875 445.550781 260.726562 C 444.609375 261.246094 443.3125 259.917969 442.757812 261.492188 C 441.667969 261.949219 440.578125 262.371094 439.492188 262.828125 C 438.507812 263.207031 437.527344 263.621094 436.542969 264 C 434.21875 264.8125 432.070312 266.226562 429.527344 266.332031 C 428.882812 266.371094 428.519531 266.890625 428.074219 267.3125 C 427.699219 267.65625 427.316406 267.894531 426.800781 267.636719 C 426.46875 267.511719 426.175781 267.347656 425.832031 267.617188 C 423.9375 269.054688 421.722656 269.898438 419.542969 270.773438 C 414.984375 272.683594 410.46875 274.734375 405.820312 276.394531 C 405.363281 276.5625 404.953125 276.910156 404.523438 276.933594 C 403.484375 276.992188 402.714844 277.359375 402.039062 278.117188 C 401.566406 278.644531 400.988281 278.535156 400.429688 278.207031 C 399.945312 277.910156 399.453125 278.082031 399.148438 278.421875 C 398.476562 279.214844 397.671875 279.582031 396.667969 279.605469 C 396.019531 279.605469 395.617188 280.09375 395.171875 280.515625 C 394.933594 280.742188 394.523438 281.089844 394.304688 281.03125 C 392.804688 280.539062 391.882812 281.382812 390.890625 282.265625 C 390.550781 282.570312 390.0625 282.8125 389.632812 282.835938 C 388.738281 282.921875 387.996094 283.144531 387.425781 283.859375 C 386.824219 284.613281 385.914062 284.449219 385.136719 284.636719 C 384.460938 284.78125 384.40625 286.328125 383.28125 285.492188 C 382.546875 285.859375 381.8125 286.1875 381.042969 286.554688 C 380.273438 286.882812 379.5 287.179688 378.765625 287.542969 C 377.820312 287.992188 376.878906 288.511719 375.859375 288.855469 C 374.765625 289.242188 373.726562 289.910156 372.996094 290.921875 C 372.59375 291.480469 372.136719 291.617188 371.472656 291.292969 C 371.25 291.164062 370.792969 291.367188 370.511719 291.492188 C 369.496094 291.910156 368.707031 292.597656 368.003906 293.464844 C 367.636719 293.953125 367.109375 294.160156 366.46875 294.269531 C 363.121094 294.78125 362.597656 295.0625 359.601562 297.3125 C 359.050781 297.738281 358.390625 298.136719 357.71875 298.28125 C 356.972656 298.46875 356.308594 298.757812 355.949219 299.386719 C 355.324219 300.390625 354.210938 299.160156 353.785156 299.867188 C 353.292969 300.6875 352.902344 300.78125 352.097656 300.5 C 351.476562 300.285156 351.636719 301.246094 351.210938 301.339844 C 350.894531 301.429688 350.449219 301.167969 350.203125 301.328125 C 347.773438 302.792969 344.980469 303.558594 342.46875 304.851562 C 340.621094 305.816406 338.941406 307.238281 336.765625 307.542969 C 336.445312 307.597656 336.03125 307.871094 335.902344 308.128906 C 335.339844 309.597656 333.691406 309.078125 332.808594 309.957031 C 331.957031 310.757812 330.914062 311.355469 329.667969 311.53125 C 329.347656 311.585938 329.078125 311.925781 328.765625 312.085938 C 327.195312 312.929688 325.621094 313.664062 323.890625 314.191406 C 321.5625 314.898438 319.371094 316.171875 317.132812 317.230469 C 314.683594 318.410156 312.203125 319.628906 309.53125 319.992188 C 307.679688 320.242188 305.941406 320.625 304.253906 321.296875 C 303.765625 321.503906 303.359375 321.3125 302.917969 321.121094 C 302.585938 320.996094 302.226562 321.015625 301.867188 320.964844 C 301.289062 320.890625 300.835938 321.777344 300.234375 321.308594 C 299.140625 320.398438 297.585938 320.164062 296.753906 318.847656 C 296.636719 318.671875 296.511719 318.359375 296.578125 318.210938 C 297.105469 316.78125 297.160156 315.195312 298.09375 313.886719 C 299.453125 311.945312 300.628906 309.867188 302.183594 308.128906 C 302.957031 307.222656 303.363281 306.085938 304.289062 305.316406 C 305.109375 304.621094 305.402344 303.457031 306.078125 302.699219 C 308.347656 300.273438 310.28125 297.617188 312.328125 295.058594 C 314.238281 292.652344 316.605469 290.652344 318.023438 287.84375 C 318.769531 286.402344 320.292969 285.417969 320.886719 283.804688 C 321.230469 282.921875 321.90625 282.167969 322.179688 281.289062 C 322.363281 280.742188 323.1875 280.082031 322.324219 279.378906 C 321.683594 278.839844 321.261719 279.617188 320.722656 279.613281 C 317.667969 279.570312 315.074219 281.332031 312.148438 281.675781 C 309.71875 283.175781 307.039062 284.082031 304.363281 285.023438 C 302.277344 286.828125 299.546875 287.449219 297.214844 288.800781 C 294.851562 290.15625 292.488281 291.546875 290.082031 292.832031 C 288.828125 293.511719 287.730469 294.433594 286.234375 294.664062 C 285.703125 294.765625 285.003906 295.128906 284.742188 295.574219 C 283.921875 296.910156 282.695312 297.449219 281.277344 297.816406 C 281.066406 297.863281 280.859375 298.054688 280.691406 298.207031 C 278.316406 300.027344 275.660156 301.328125 273.164062 302.941406 C 272.578125 303.332031 272.070312 303.898438 271.4375 304.152344 C 269.644531 304.789062 268.285156 306.195312 266.488281 306.765625 C 265.886719 306.941406 265.398438 307.183594 264.84375 306.894531 C 264.582031 306.761719 264.335938 306.8125 264.316406 307.136719 C 264.148438 309.265625 262.105469 309.308594 260.867188 310.242188 C 259.984375 309.929688 259.496094 310.136719 259.042969 311.0625 C 258.660156 311.910156 257.832031 312.457031 256.921875 312.90625 C 255.453125 313.632812 253.992188 314.46875 252.609375 315.375 C 248.519531 318.011719 244.234375 320.335938 240.183594 323.003906 C 237.101562 325.046875 233.703125 326.496094 230.894531 328.914062 C 229.394531 329.070312 228.539062 330.449219 227.199219 330.882812 C 226.597656 331.058594 226 331.273438 225.742188 331.789062 C 225.226562 332.824219 223.957031 332.609375 223.3125 333.328125 C 222.675781 334.082031 221.832031 334.453125 221.035156 334.929688 C 220.132812 335.480469 219.621094 336.625 218.324219 336.519531 C 216.726562 338.152344 214.1875 338.296875 212.671875 340.105469 C 211.335938 340.574219 210.035156 341.113281 208.941406 342.109375 C 207.988281 342.988281 206.480469 343.003906 205.679688 344.125 C 203.339844 344.652344 201.410156 346.054688 199.351562 347.101562 C 197.324219 348.113281 195.253906 348.949219 193.179688 349.785156 C 190.40625 350.910156 185.710938 351.640625 183.070312 351.324219 C 181.441406 351.128906 179.703125 350.867188 178.457031 349.71875 C 177.851562 349.175781 177.5 348.730469 176.703125 349.242188 C 176.566406 349.320312 176.207031 349.304688 176.09375 349.203125 C 175.527344 348.769531 175 348.296875 174.46875 347.789062 C 173.519531 346.871094 172.433594 346.070312 171.691406 345.035156 C 171.066406 344.101562 171.703125 342.664062 170.890625 341.632812 C 171.289062 341.074219 170.601562 340.320312 170.90625 340.015625 C 172.167969 338.832031 171.691406 337.351562 171.792969 335.980469 C 171.804688 335.550781 171.953125 335.039062 172.21875 334.664062 C 173.488281 332.941406 174.125 330.859375 175.613281 329.265625 C 175.917969 328.925781 176.179688 328.480469 176.335938 328.078125 C 177.453125 325.570312 179.015625 323.363281 180.726562 321.222656 C 181.398438 320.394531 181.921875 319.46875 182.480469 318.574219 C 183.628906 316.640625 185.339844 315.179688 186.527344 313.28125 C 188.566406 309.972656 191.429688 307.261719 193.167969 303.714844 C 193.363281 303.308594 193.734375 302.929688 194.039062 302.589844 C 195.769531 300.769531 197.050781 298.648438 198.332031 296.53125 C 198.558594 296.121094 198.824219 295.710938 199.164062 295.371094 C 201.617188 293.042969 203.324219 290.179688 205.328125 287.519531 C 207.066406 285.230469 208.808594 283.011719 210.695312 280.859375 C 211.066406 280.40625 211.433594 279.921875 211.65625 279.367188 C 212.097656 278.339844 212.800781 277.402344 213.667969 276.886719 C 215.582031 275.808594 216.265625 273.902344 217.171875 272.164062 C 217.726562 271.128906 218.277344 270.089844 219.050781 269.148438 C 220.328125 267.640625 221.382812 265.929688 222.089844 263.808594 C 220.472656 263.828125 219.210938 263.753906 217.988281 264.9375 C 216.894531 265.96875 215.5 266.691406 213.742188 266.074219 C 212.753906 265.734375 211.71875 266.472656 211.402344 267.246094 C 210.804688 268.753906 209.808594 269.527344 208.316406 269.863281 C 206.683594 271.460938 204.542969 272.300781 202.59375 273.453125 C 201.167969 274.285156 199.699219 274.980469 198.3125 275.847656 C 196.925781 276.714844 195.417969 277.339844 194.035156 278.28125 C 193.167969 278.867188 192.1875 279.316406 191.210938 279.804688 C 190.582031 280.125 189.914062 280.378906 189.285156 280.703125 C 187.613281 281.585938 186.171875 282.78125 184.421875 283.5625 C 182.808594 284.261719 181.441406 285.453125 179.910156 286.363281 C 178.277344 287.355469 176.644531 288.308594 174.976562 289.265625 C 173.445312 290.140625 171.839844 290.984375 170.308594 291.863281 C 168.675781 292.816406 167.003906 293.734375 165.410156 294.757812 C 163.226562 296.175781 161.203125 297.867188 158.898438 299.003906 C 156.941406 299.976562 155.523438 301.527344 153.679688 302.601562 C 151.835938 303.675781 150.113281 304.921875 148.269531 305.996094 C 146.632812 306.914062 145.195312 308.179688 143.683594 309.34375 C 143.203125 309.726562 142.152344 308.960938 142.109375 310.113281 C 141.417969 310.546875 140.6875 310.984375 140.03125 311.449219 C 139.445312 311.878906 138.933594 312.375 138.382812 312.800781 C 137.730469 313.304688 137.074219 313.808594 136.382812 314.277344 C 135.796875 314.671875 135.128906 314.957031 134.542969 315.351562 C 133.847656 315.820312 133.234375 316.394531 132.542969 316.863281 C 131.957031 317.257812 131.214844 317.476562 130.699219 317.9375 C 128.140625 320.273438 125.070312 321.847656 122.113281 323.59375 C 121.210938 324.144531 120.429688 324.945312 119.488281 325.429688 C 118.441406 325.953125 117.871094 327.277344 116.464844 327.179688 C 115.984375 328.246094 115.003906 328.660156 114.015625 328.96875 C 112.46875 330.816406 110.339844 331.941406 108.523438 333.445312 C 107.253906 334.484375 105.828125 335.355469 104.484375 336.328125 C 104 336.679688 103.476562 336.960938 103.070312 337.378906 C 102.085938 338.402344 101.101562 339.390625 99.507812 339.121094 C 98.710938 339.632812 97.679688 339.871094 97.417969 340.929688 C 97.179688 341.804688 96.5625 342.339844 95.988281 342.949219 C 95.582031 343.367188 94.8125 342.511719 94.578125 343.457031 C 94.375 344.257812 93.476562 344.273438 93.003906 344.804688 C 92.632812 345.253906 91.925781 345.4375 91.628906 345.886719 C 91.105469 346.777344 90.492188 347.351562 89.375 347.304688 C 88.871094 347.296875 88.53125 347.640625 88.457031 348.21875 C 88.410156 348.6875 88.328125 349.125 87.878906 349.4375 C 84.902344 351.402344 82.695312 354.289062 79.832031 356.390625 C 77.972656 357.789062 76.351562 359.601562 74.0625 360.414062 C 73.851562 360.496094 73.539062 360.695312 73.546875 360.800781 C 73.652344 362.664062 71.886719 362.546875 70.953125 363.210938 C 70.363281 363.601562 69.738281 363.960938 69.304688 364.558594 C 68.402344 365.761719 67.695312 367.199219 66.5625 368.160156 C 65.464844 369.085938 64.40625 370.007812 63.421875 371.03125 C 63.355469 371.109375 63.253906 371.257812 63.183594 371.261719 C 63.007812 371.308594 62.789062 371.285156 62.609375 371.257812 C 62.535156 371.226562 62.457031 371.085938 62.449219 370.945312 C 62.328125 370.125 62.246094 369.265625 62.890625 368.585938 C 63.53125 367.902344 64.058594 367.011719 64.816406 366.464844 C 66.71875 365.171875 68.089844 363.371094 69.648438 361.738281 C 69.816406 361.550781 69.949219 361.328125 70.121094 361.210938 C 71.722656 360.332031 72.53125 358.703125 73.792969 357.519531 C 74.03125 357.292969 74.1875 356.886719 74.46875 356.800781 C 75.101562 356.550781 75.964844 356.574219 75.363281 355.492188 C 75.363281 355.492188 78.054688 352.898438 78.089844 352.898438 C 78.40625 352.773438 78.871094 352.710938 79 352.453125 C 79.496094 351.707031 79.574219 350.515625 80.964844 351.011719 C 81.394531 350.304688 81.859375 349.632812 82.828125 349.648438 C 84.261719 348.3125 86.339844 347.585938 87.007812 345.429688 C 87.128906 345.027344 87.675781 344.53125 88.03125 344.507812 C 89.285156 344.4375 89.878906 343.507812 90.625 342.746094 C 91.03125 342.328125 91.398438 341.804688 91.882812 341.492188 C 94.9375 339.632812 97.226562 336.917969 99.9375 334.644531 C 102.027344 332.910156 103.929688 330.9375 106.292969 329.582031 C 107.039062 328.175781 108.886719 328.46875 109.792969 327.304688 C 110.699219 326.175781 111.757812 325.253906 112.972656 324.503906 C 113.285156 324.304688 113.480469 323.972656 113.761719 323.8125 C 117.421875 321.847656 120.644531 319.1875 124.03125 316.839844 C 126.503906 316.128906 127.917969 313.785156 130.234375 312.828125 C 130.792969 311.9375 131.984375 312.046875 132.636719 311.472656 C 133.867188 310.398438 135.417969 309.878906 136.53125 308.632812 C 137.308594 307.761719 138.351562 307.128906 139.394531 306.53125 C 140.75 305.738281 141.960938 304.914062 143.121094 303.84375 C 144.417969 302.65625 146.0625 301.882812 147.472656 300.796875 C 148.777344 299.753906 150.164062 298.851562 151.628906 298.050781 C 152.984375 297.289062 154.191406 296.359375 155.46875 295.5 C 158.578125 293.3125 161.769531 291.300781 164.996094 289.289062 C 170.300781 285.9375 175.722656 282.757812 181.183594 279.613281 C 184.035156 277.980469 186.765625 276.105469 189.617188 274.472656 C 192.507812 272.835938 195.351562 271.058594 198.28125 269.53125 C 201.175781 268.003906 203.988281 266.300781 207.078125 265.085938 C 207.921875 264.75 208.636719 264.027344 209.433594 263.550781 C 213.875 260.789062 218.679688 258.792969 223.660156 257.292969 C 225.210938 256.808594 226.980469 256.960938 228.628906 256.867188 C 229.449219 256.820312 230.195312 257.929688 230.140625 258.863281 C 229.996094 261.421875 228.980469 263.742188 227.808594 265.890625 C 225.972656 269.621094 223.554688 273.277344 221.027344 276.867188 C 220.761719 277.238281 220.386719 277.585938 220.082031 277.925781 C 218.089844 280.15625 216.503906 282.613281 214.886719 285.113281 C 214.753906 285.296875 214.660156 285.519531 214.488281 285.707031 C 212.210938 287.992188 210.648438 290.84375 208.5625 293.296875 C 206.742188 295.445312 205.042969 297.730469 203.488281 300.117188 C 202.199219 302.09375 200.6875 303.9375 199.25 305.851562 C 198.117188 307.386719 196.980469 308.886719 195.847656 310.421875 C 195.078125 311.472656 194.421875 312.585938 193.621094 313.636719 C 192.816406 314.652344 191.972656 315.597656 191.320312 316.78125 C 190.734375 317.855469 189.328125 318.402344 189.011719 319.785156 C 188.664062 321.242188 187.160156 321.972656 186.550781 323.261719 C 185.972656 324.480469 184.945312 325.328125 184.289062 326.441406 C 182.257812 329.898438 179.59375 332.957031 178.160156 336.808594 C 177.625 338.203125 178.25 339.675781 177.496094 340.972656 C 177.726562 341.894531 177.921875 342.78125 178.222656 343.664062 C 178.308594 343.910156 178.75 344.097656 179.039062 344.15625 C 180.527344 344.429688 182.078125 344.523438 183.570312 344.941406 C 185.503906 345.476562 187.296875 345.375 189.121094 344.628906 C 189.894531 344.332031 190.710938 344.214844 191.488281 343.992188 C 193.644531 343.332031 195.710938 342.460938 197.617188 341.238281 C 198.484375 340.6875 199.585938 340.445312 200.523438 339.925781 C 202.367188 338.855469 204.296875 338.027344 206.097656 336.847656 C 209.078125 334.921875 212.25 333.234375 215.308594 331.445312 C 218.472656 329.613281 221.59375 327.679688 224.558594 325.464844 C 224.730469 325.3125 224.976562 325.226562 225.183594 325.105469 C 229.457031 322.53125 233.726562 319.957031 237.960938 317.347656 C 239.28125 316.554688 240.476562 315.449219 241.847656 314.941406 C 243.359375 314.351562 244.53125 313.496094 245.769531 312.527344 C 246.042969 312.296875 246.394531 312.167969 246.710938 312.007812 C 248.695312 310.960938 250.648438 309.882812 252.515625 308.664062 C 254.421875 307.445312 256.453125 306.46875 258.359375 305.28125 C 260.335938 304.058594 262.824219 303.558594 264.328125 301.570312 C 266.390625 301.238281 267.535156 299.273438 269.589844 298.761719 C 270.757812 298.480469 271.734375 297.3125 272.847656 296.675781 C 279.25 293.011719 285.609375 289.3125 292.050781 285.71875 C 294.734375 284.238281 297.535156 282.964844 300.335938 281.695312 C 303.347656 280.375 306.316406 278.878906 309.457031 277.878906 C 311.359375 277.265625 313.304688 276.726562 315.175781 276.117188 C 318.664062 274.988281 322.234375 275.21875 325.769531 274.910156 C 326.914062 274.8125 327.148438 275.121094 326.785156 276.363281 C 326.636719 276.875 326.625 277.339844 327.070312 277.566406 C 327.660156 277.855469 328.035156 278.121094 327.824219 278.890625 C 326.910156 282.386719 325.4375 285.558594 322.929688 288.214844 C 322.863281 288.289062 322.757812 288.367188 322.691406 288.476562 C 322.199219 289.261719 321.707031 290.078125 321.175781 290.863281 C 320.679688 291.644531 319.46875 291.820312 319.316406 292.90625 C 316.914062 295.554688 315.269531 298.808594 312.640625 301.253906 C 311.34375 302.476562 310.195312 303.761719 309.390625 305.351562 C 309.101562 305.976562 308.632812 306.578125 308.121094 307.074219 C 306.214844 308.90625 304.832031 311.136719 303.375 313.300781 C 302.71875 314.417969 302.289062 315.699219 301.742188 316.839844 Z M 301.742188 316.839844 " fill-opacity="1" fill-rule="nonzero"/></g></g></g><g clip-path="url(#fa64acf43f)"><path fill="#000000" d="M 180.808594 177.453125 C 180.964844 178.882812 181.238281 180.289062 181.632812 181.667969 C 182.027344 183.050781 182.535156 184.390625 183.15625 185.683594 C 183.777344 186.980469 184.503906 188.214844 185.332031 189.386719 C 186.164062 190.558594 187.085938 191.652344 188.101562 192.667969 C 189.117188 193.683594 190.214844 194.609375 191.386719 195.4375 C 192.558594 196.269531 193.792969 196.996094 195.085938 197.617188 C 196.382812 198.238281 197.722656 198.746094 199.101562 199.136719 C 200.484375 199.53125 201.890625 199.808594 203.316406 199.964844 C 210.226562 200.71875 219.144531 201.210938 230.660156 201.210938 C 219.144531 201.210938 210.226562 201.699219 203.316406 202.457031 C 201.890625 202.613281 200.484375 202.886719 199.101562 203.28125 C 197.722656 203.675781 196.382812 204.183594 195.085938 204.804688 C 193.792969 205.425781 192.558594 206.152344 191.386719 206.980469 C 190.214844 207.8125 189.117188 208.734375 188.101562 209.75 C 187.085938 210.765625 186.164062 211.859375 185.332031 213.03125 C 184.503906 214.207031 183.777344 215.4375 183.15625 216.734375 C 182.535156 218.03125 182.027344 219.367188 181.632812 220.75 C 181.238281 222.132812 180.964844 223.535156 180.808594 224.964844 C 180.050781 231.875 179.5625 240.792969 179.5625 252.304688 C 179.5625 240.792969 179.074219 231.875 178.316406 224.964844 C 178.160156 223.535156 177.886719 222.132812 177.492188 220.75 C 177.097656 219.367188 176.589844 218.03125 175.96875 216.734375 C 175.347656 215.4375 174.621094 214.207031 173.792969 213.03125 C 172.960938 211.859375 172.039062 210.765625 171.023438 209.75 C 170.007812 208.734375 168.910156 207.8125 167.738281 206.980469 C 166.566406 206.152344 165.332031 205.425781 164.039062 204.804688 C 162.742188 204.183594 161.402344 203.675781 160.023438 203.28125 C 158.640625 202.886719 157.234375 202.613281 155.808594 202.457031 C 148.898438 201.699219 139.980469 201.210938 128.464844 201.210938 C 139.980469 201.210938 148.898438 200.71875 155.808594 199.964844 C 157.234375 199.808594 158.640625 199.53125 160.023438 199.136719 C 161.402344 198.746094 162.742188 198.238281 164.039062 197.617188 C 165.332031 196.996094 166.566406 196.269531 167.738281 195.4375 C 168.910156 194.609375 170.007812 193.683594 171.023438 192.667969 C 172.039062 191.652344 172.960938 190.558594 173.792969 189.386719 C 174.621094 188.214844 175.347656 186.980469 175.96875 185.683594 C 176.589844 184.390625 177.097656 183.050781 177.492188 181.667969 C 177.886719 180.289062 178.160156 178.882812 178.316406 177.453125 C 179.074219 170.546875 179.5625 161.628906 179.5625 150.113281 C 179.5625 161.628906 180.050781 170.546875 180.808594 177.453125 Z M 180.808594 177.453125 " fill-opacity="1" fill-rule="nonzero"/></g><g clip-path="url(#a2d40f25a1)"><path fill="#000000" d="M 613.460938 177.453125 C 613.617188 178.882812 613.890625 180.289062 614.285156 181.667969 C 614.679688 183.050781 615.1875 184.390625 615.808594 185.683594 C 616.429688 186.980469 617.15625 188.214844 617.984375 189.386719 C 618.816406 190.558594 619.738281 191.652344 620.753906 192.667969 C 621.769531 193.683594 622.863281 194.609375 624.035156 195.4375 C 625.207031 196.269531 626.441406 196.996094 627.738281 197.617188 C 629.035156 198.238281 630.371094 198.746094 631.753906 199.136719 C 633.136719 199.53125 634.539062 199.808594 635.96875 199.964844 C 642.878906 200.71875 651.796875 201.210938 663.308594 201.210938 C 651.796875 201.210938 642.878906 201.699219 635.96875 202.457031 C 634.539062 202.613281 633.136719 202.886719 631.753906 203.28125 C 630.371094 203.675781 629.035156 204.183594 627.738281 204.804688 C 626.441406 205.425781 625.207031 206.152344 624.035156 206.980469 C 622.863281 207.8125 621.769531 208.734375 620.753906 209.75 C 619.738281 210.765625 618.816406 211.859375 617.984375 213.03125 C 617.15625 214.207031 616.429688 215.4375 615.808594 216.734375 C 615.1875 218.03125 614.679688 219.367188 614.285156 220.75 C 613.890625 222.132812 613.617188 223.535156 613.460938 224.964844 C 612.703125 231.875 612.214844 240.792969 612.214844 252.304688 C 612.214844 240.792969 611.722656 231.875 610.96875 224.964844 C 610.8125 223.535156 610.535156 222.132812 610.140625 220.75 C 609.746094 219.367188 609.242188 218.03125 608.621094 216.734375 C 608 215.4375 607.273438 214.207031 606.441406 213.03125 C 605.613281 211.859375 604.6875 210.765625 603.671875 209.75 C 602.65625 208.734375 601.5625 207.8125 600.390625 206.980469 C 599.21875 206.152344 597.984375 205.425781 596.6875 204.804688 C 595.394531 204.183594 594.054688 203.675781 592.671875 203.28125 C 591.292969 202.886719 589.886719 202.613281 588.457031 202.457031 C 581.550781 201.699219 572.628906 201.210938 561.117188 201.210938 C 572.628906 201.210938 581.550781 200.71875 588.457031 199.964844 C 589.886719 199.808594 591.292969 199.53125 592.671875 199.136719 C 594.054688 198.746094 595.394531 198.238281 596.6875 197.617188 C 597.984375 196.996094 599.21875 196.269531 600.390625 195.4375 C 601.5625 194.609375 602.65625 193.683594 603.671875 192.667969 C 604.6875 191.652344 605.613281 190.558594 606.441406 189.386719 C 607.273438 188.214844 608 186.980469 608.621094 185.683594 C 609.242188 184.390625 609.746094 183.050781 610.140625 181.667969 C 610.535156 180.289062 610.8125 178.882812 610.96875 177.453125 C 611.722656 170.546875 612.214844 161.628906 612.214844 150.113281 C 612.214844 161.628906 612.703125 170.546875 613.460938 177.453125 Z M 613.460938 177.453125 " fill-opacity="1" fill-rule="nonzero"/></g><g clip-path="url(#3c2c78ace3)"><g clip-path="url(#f2025ef5b1)"><path fill="#000000" d="M 507.34375 231.628906 L 528.25 231.628906 L 528.25 264.046875 L 507.34375 264.046875 Z M 507.34375 231.628906 " fill-opacity="1" fill-rule="nonzero"/></g></g><g clip-path="url(#27f03f630e)"><g clip-path="url(#a547d472db)"><path fill="#000000" d="M 504.261719 237.660156 L 527.042969 237.660156 L 527.042969 263.820312 L 504.261719 263.820312 Z M 504.261719 237.660156 " fill-opacity="1" fill-rule="nonzero"/></g></g><g clip-path="url(#17c14bd32d)"><g clip-path="url(#3cc967406c)"><path fill="#000000" d="M 506.742188 234.105469 L 528.851562 234.105469 L 528.851562 261.574219 L 506.742188 261.574219 Z M 506.742188 234.105469 " fill-opacity="1" fill-rule="nonzero"/></g></g><g clip-path="url(#df4c955105)"><g clip-path="url(#46805921d0)"><g clip-path="url(#6712e382bf)"><path fill="#ffffff" d="M 497.675781 111.453125 L 505.660156 111.476562 L 505.679688 104.980469 L 497.695312 104.953125 L 497.675781 111.453125 " fill-opacity="1" fill-rule="nonzero"/></g></g></g><g clip-path="url(#df1c6d25d4)"><g clip-path="url(#c7c47c5ffc)"><g clip-path="url(#69dc3c0b94)"><path fill="#ffffff" d="M 504.6875 113.382812 C 504.683594 114.667969 505.71875 115.710938 507 115.714844 L 517.511719 115.746094 C 518.792969 115.753906 519.835938 114.710938 519.835938 113.433594 L 519.910156 90.976562 C 519.925781 86.269531 517.097656 86.261719 515.8125 86.253906 L 508.785156 86.238281 C 507.5 86.230469 504.773438 86.226562 504.757812 90.929688 L 504.6875 113.382812 " fill-opacity="1" fill-rule="nonzero"/></g></g></g><g clip-path="url(#2727140e9e)"><g clip-path="url(#6ed16792ab)"><g clip-path="url(#9eb15cf5d0)"><path fill="#ffffff" d="M 494.273438 161.496094 C 494.273438 162.777344 494.601562 163.820312 495.011719 163.816406 L 498.363281 163.832031 C 498.777344 163.832031 499.109375 162.792969 499.113281 161.511719 L 499.222656 104.777344 C 499.238281 100.066406 498.332031 100.0625 497.921875 100.058594 L 495.679688 100.050781 C 495.265625 100.050781 494.398438 100.050781 494.382812 104.757812 L 494.277344 161.496094 " fill-opacity="1" fill-rule="nonzero"/></g></g></g><g clip-path="url(#2483a84beb)"><g clip-path="url(#c76dd302c5)"><g clip-path="url(#4cdb6cfb95)"><path fill="#ffffff" d="M 519.875 101.097656 L 519.734375 225.179688 L 512.09375 245.734375 L 504.578125 225.128906 L 504.726562 101.046875 L 519.875 101.097656 " fill-opacity="1" fill-rule="nonzero"/></g></g></g><g clip-path="url(#e239a3acc9)"><g clip-path="url(#fc588ae3b2)"><g clip-path="url(#edeecf0c7e)"><path fill="#ffffff" d="M 519.734375 225.179688 L 512.09375 245.734375 L 504.578125 225.128906 Z M 519.734375 225.179688 " fill-opacity="1" fill-rule="nonzero"/></g></g></g><g clip-path="url(#f0bbd04d0b)"><g clip-path="url(#79f4b62f63)"><g clip-path="url(#9c1a1eb956)"><path fill="#ffffff" d="M 515.113281 237.601562 L 512.09375 245.734375 L 509.113281 237.550781 Z M 515.113281 237.601562 " fill-opacity="1" fill-rule="nonzero"/></g></g></g><g clip-path="url(#121d83ee85)"><g clip-path="url(#76f7661880)"><g clip-path="url(#e0d057f1e8)"><path fill="#ffffff" d="M 504.6875 113.382812 L 519.835938 113.433594 L 519.875 101.097656 L 504.726562 101.046875 L 504.6875 113.382812 " fill-opacity="1" fill-rule="nonzero"/></g></g></g><g clip-path="url(#4bb8419f19)"><path fill="#1e0b4c" d="M 504.332031 133.046875 L 504.332031 138.425781 L 519.992188 127.960938 L 519.992188 122.578125 Z M 504.332031 133.046875 " fill-opacity="1" fill-rule="nonzero"/></g><g clip-path="url(#cc88c1ae7f)"><path fill="#4c0b24" d="M 504.332031 140.972656 L 504.332031 146.351562 L 519.992188 135.886719 L 519.992188 130.503906 Z M 504.332031 140.972656 " fill-opacity="1" fill-rule="nonzero"/></g><g clip-path="url(#cfd5d148a6)"><path fill="#0b3a4c" d="M 504.332031 148.898438 L 504.332031 154.277344 L 519.992188 143.8125 L 519.992188 138.429688 Z M 504.332031 148.898438 " fill-opacity="1" fill-rule="nonzero"/></g><g clip-path="url(#888f2a3d0e)"><path fill="#4c4c0b" d="M 504.46875 156.824219 L 504.46875 162.203125 L 520.132812 151.738281 L 520.132812 146.355469 Z M 504.46875 156.824219 " fill-opacity="1" fill-rule="nonzero"/></g></svg>