<svg xmlns="http://www.w3.org/2000/svg" xmlns:xlink="http://www.w3.org/1999/xlink" width="500" zoomAndPan="magnify" viewBox="0 0 375 374.999991" height="500" preserveAspectRatio="xMidYMid meet" version="1.0"><defs><g/><clipPath id="e408cf2351"><path d="M 14 210 L 267 210 L 267 281 L 14 281 Z M 14 210 " clip-rule="nonzero"/></clipPath><clipPath id="66af55992b"><path d="M 11.015625 222.328125 L 267.109375 207.894531 L 270.402344 266.300781 L 14.308594 280.738281 Z M 11.015625 222.328125 " clip-rule="nonzero"/></clipPath><clipPath id="d97ccd373a"><path d="M 11.015625 222.328125 L 267.109375 207.894531 L 270.402344 266.300781 L 14.308594 280.738281 Z M 11.015625 222.328125 " clip-rule="nonzero"/></clipPath><clipPath id="1d37715080"><path d="M 52.402344 158.902344 L 109.402344 158.902344 L 109.402344 215.902344 L 52.402344 215.902344 Z M 52.402344 158.902344 " clip-rule="nonzero"/></clipPath><clipPath id="6970347998"><path d="M 294.546875 158.902344 L 351.546875 158.902344 L 351.546875 215.902344 L 294.546875 215.902344 Z M 294.546875 158.902344 " clip-rule="nonzero"/></clipPath><clipPath id="02164a3030"><path d="M 267.421875 207.496094 L 273.132812 207.496094 L 273.132812 219.789062 L 267.421875 219.789062 Z M 267.421875 207.496094 " clip-rule="nonzero"/></clipPath><clipPath id="634de785ba"><path d="M 267.449219 218.023438 C 267.898438 210.976562 268.574219 209.175781 269.398438 208.351562 C 269.851562 207.824219 270.523438 207.449219 271.125 207.523438 C 271.800781 207.601562 272.851562 208.5 273.074219 209.175781 C 273.226562 209.699219 272.925781 210.601562 272.550781 211.050781 C 272.175781 211.425781 271.273438 211.726562 270.75 211.648438 C 270.148438 211.574219 269.398438 211.050781 269.175781 210.523438 C 268.949219 209.925781 269.25 208.5 269.699219 208.050781 C 270.074219 207.675781 271.050781 207.449219 271.574219 207.601562 C 272.175781 207.824219 273 208.875 273.074219 209.625 C 273.226562 210.449219 272.175781 211.273438 271.800781 212.398438 C 271.351562 214.199219 271.726562 218.023438 270.824219 219.074219 C 270.300781 219.675781 269.324219 219.898438 268.726562 219.675781 C 268.199219 219.523438 267.449219 218.023438 267.449219 218.023438 " clip-rule="nonzero"/></clipPath><clipPath id="980b3cf4d7"><path d="M 265.714844 210.789062 L 272.636719 210.789062 L 272.636719 219.652344 L 265.714844 219.652344 Z M 265.714844 210.789062 " clip-rule="nonzero"/></clipPath><clipPath id="1a7d55d52f"><path d="M 265.726562 216.976562 C 270.449219 210.675781 271.125 210.75 271.574219 210.898438 C 271.949219 210.976562 272.324219 211.273438 272.476562 211.648438 C 272.699219 212.175781 272.625 213.449219 272.175781 213.976562 C 271.875 214.351562 271.050781 214.574219 270.523438 214.5 C 270.148438 214.425781 269.699219 214.273438 269.476562 213.898438 C 269.175781 213.523438 268.875 212.699219 269.023438 212.175781 C 269.101562 211.726562 269.625 211.050781 270.148438 210.898438 C 270.75 210.675781 272.023438 211.050781 272.398438 211.5 C 272.699219 211.949219 272.625 212.925781 272.324219 213.824219 C 271.800781 215.324219 269.476562 218.851562 268.199219 219.449219 C 267.449219 219.75 266.550781 219.675781 266.175781 219.300781 C 265.726562 218.925781 265.726562 216.976562 265.726562 216.976562 " clip-rule="nonzero"/></clipPath><clipPath id="71c785493e"><path d="M 264 207.648438 L 270.378906 207.648438 L 270.378906 217.269531 L 264 217.269531 Z M 264 207.648438 " clip-rule="nonzero"/></clipPath><clipPath id="ccd591e96d"><path d="M 264 214.875 C 267.976562 207.523438 269.023438 207.523438 269.550781 207.898438 C 270.074219 208.199219 270.449219 209.476562 270.300781 210.074219 C 270.148438 210.601562 269.476562 211.125 268.949219 211.273438 C 268.425781 211.425781 267.601562 211.199219 267.226562 210.898438 C 266.925781 210.601562 266.699219 210.226562 266.625 209.851562 C 266.550781 209.324219 266.699219 208.5 267.074219 208.125 C 267.601562 207.75 268.875 207.601562 269.398438 207.75 C 269.773438 207.898438 270.074219 208.273438 270.226562 208.648438 C 270.375 209.101562 270.300781 209.699219 270.074219 210.449219 C 269.699219 211.949219 268.050781 215.925781 266.851562 216.824219 C 266.25 217.273438 265.351562 217.351562 264.824219 217.050781 C 264.300781 216.75 264 214.875 264 214.875 " clip-rule="nonzero"/></clipPath><clipPath id="ce51528348"><path d="M 252 72 L 260 72 L 260 80 L 252 80 Z M 252 72 " clip-rule="nonzero"/></clipPath><clipPath id="1c8017fbff"><path d="M 266.175781 210.984375 L 184.503906 129.3125 L 266.707031 47.113281 L 348.375 128.78125 Z M 266.175781 210.984375 " clip-rule="nonzero"/></clipPath><clipPath id="1500f804da"><path d="M 348.359375 128.796875 L 266.6875 47.128906 L 184.488281 129.328125 L 266.160156 211 Z M 348.359375 128.796875 " clip-rule="nonzero"/></clipPath><clipPath id="fef6b79706"><path d="M 258 54 L 274 54 L 274 84 L 258 84 Z M 258 54 " clip-rule="nonzero"/></clipPath><clipPath id="5afc664fc8"><path d="M 266.175781 210.984375 L 184.503906 129.3125 L 266.707031 47.113281 L 348.375 128.78125 Z M 266.175781 210.984375 " clip-rule="nonzero"/></clipPath><clipPath id="de56ee1777"><path d="M 348.359375 128.796875 L 266.6875 47.128906 L 184.488281 129.328125 L 266.160156 211 Z M 348.359375 128.796875 " clip-rule="nonzero"/></clipPath><clipPath id="64e92e9225"><path d="M 248 67 L 254 67 L 254 131 L 248 131 Z M 248 67 " clip-rule="nonzero"/></clipPath><clipPath id="305c292e67"><path d="M 266.175781 210.984375 L 184.503906 129.3125 L 266.707031 47.113281 L 348.375 128.78125 Z M 266.175781 210.984375 " clip-rule="nonzero"/></clipPath><clipPath id="3aa6468a90"><path d="M 348.359375 128.796875 L 266.6875 47.128906 L 184.488281 129.328125 L 266.160156 211 Z M 348.359375 128.796875 " clip-rule="nonzero"/></clipPath><clipPath id="03d6986cc4"><path d="M 258 68 L 274 68 L 274 211 L 258 211 Z M 258 68 " clip-rule="nonzero"/></clipPath><clipPath id="d8e2cffbac"><path d="M 266.175781 210.984375 L 184.503906 129.3125 L 266.707031 47.113281 L 348.375 128.78125 Z M 266.175781 210.984375 " clip-rule="nonzero"/></clipPath><clipPath id="3348546513"><path d="M 348.359375 128.796875 L 266.6875 47.128906 L 184.488281 129.328125 L 266.160156 211 Z M 348.359375 128.796875 " clip-rule="nonzero"/></clipPath><clipPath id="90be36eb89"><path d="M 258 190 L 274 190 L 274 211 L 258 211 Z M 258 190 " clip-rule="nonzero"/></clipPath><clipPath id="06ab0ce4c3"><path d="M 266.175781 210.984375 L 184.503906 129.3125 L 266.707031 47.113281 L 348.375 128.78125 Z M 266.175781 210.984375 " clip-rule="nonzero"/></clipPath><clipPath id="d06484adee"><path d="M 348.359375 128.796875 L 266.6875 47.128906 L 184.488281 129.328125 L 266.160156 211 Z M 348.359375 128.796875 " clip-rule="nonzero"/></clipPath><clipPath id="62523a7958"><path d="M 263 202 L 270 202 L 270 211 L 263 211 Z M 263 202 " clip-rule="nonzero"/></clipPath><clipPath id="64864fdf57"><path d="M 266.175781 210.984375 L 184.503906 129.3125 L 266.707031 47.113281 L 348.375 128.78125 Z M 266.175781 210.984375 " clip-rule="nonzero"/></clipPath><clipPath id="e8541d542b"><path d="M 348.359375 128.796875 L 266.6875 47.128906 L 184.488281 129.328125 L 266.160156 211 Z M 348.359375 128.796875 " clip-rule="nonzero"/></clipPath><clipPath id="20503607fe"><path d="M 258 68 L 274 68 L 274 82 L 258 82 Z M 258 68 " clip-rule="nonzero"/></clipPath><clipPath id="ad7130c0b7"><path d="M 266.175781 210.984375 L 184.503906 129.3125 L 266.707031 47.113281 L 348.375 128.78125 Z M 266.175781 210.984375 " clip-rule="nonzero"/></clipPath><clipPath id="4feb02c9f6"><path d="M 348.359375 128.796875 L 266.6875 47.128906 L 184.488281 129.328125 L 266.160156 211 Z M 348.359375 128.796875 " clip-rule="nonzero"/></clipPath><clipPath id="87d5b08796"><path d="M 258.207031 90.035156 L 273.957031 90.035156 L 273.957031 105.597656 L 258.207031 105.597656 Z M 258.207031 90.035156 " clip-rule="nonzero"/></clipPath><clipPath id="963ccb9582"><path d="M 258.207031 97.820312 L 273.957031 97.820312 L 273.957031 113.382812 L 258.207031 113.382812 Z M 258.207031 97.820312 " clip-rule="nonzero"/></clipPath><clipPath id="87c0402675"><path d="M 258.207031 105.601562 L 273.957031 105.601562 L 273.957031 121.164062 L 258.207031 121.164062 Z M 258.207031 105.601562 " clip-rule="nonzero"/></clipPath><clipPath id="404fe0958b"><path d="M 258.339844 113.382812 L 274.089844 113.382812 L 274.089844 128.945312 L 258.339844 128.945312 Z M 258.339844 113.382812 " clip-rule="nonzero"/></clipPath></defs><g fill="#ffffff" fill-opacity="1"><g transform="translate(3.243427, 209.999986)"><g><path d="M 7.453125 -42.484375 L 7.453125 -58.296875 L 22.109375 -58.296875 L 22.109375 -42.484375 L 31.0625 -42.484375 L 31.0625 -31.296875 L 22.109375 -31.296875 L 22.109375 -17.8125 C 22.109375 -13.882812 23.210938 -11.921875 25.421875 -11.921875 C 25.972656 -11.921875 26.550781 -12.03125 27.15625 -12.25 C 27.769531 -12.476562 28.242188 -12.703125 28.578125 -12.921875 L 29.0625 -13.25 L 32.71875 -1.40625 C 29.5625 0.363281 25.972656 1.25 21.953125 1.25 C 19.191406 1.25 16.816406 0.765625 14.828125 -0.203125 C 12.835938 -1.171875 11.332031 -2.46875 10.3125 -4.09375 C 9.289062 -5.726562 8.554688 -7.441406 8.109375 -9.234375 C 7.671875 -11.023438 7.453125 -12.941406 7.453125 -14.984375 L 7.453125 -31.296875 L 1.328125 -31.296875 L 1.328125 -42.484375 Z M 7.453125 -42.484375 "/></g></g></g><g fill="#ffffff" fill-opacity="1"><g transform="translate(29.491734, 209.999986)"><g><path d="M 4.96875 0 L 4.96875 -71.21875 L 19.625 -71.21875 L 19.625 -38.015625 L 19.796875 -38.015625 C 23.597656 -41.816406 27.65625 -43.71875 31.96875 -43.71875 C 34.0625 -43.71875 36.144531 -43.441406 38.21875 -42.890625 C 40.289062 -42.335938 42.273438 -41.484375 44.171875 -40.328125 C 46.078125 -39.171875 47.625 -37.53125 48.8125 -35.40625 C 50 -33.28125 50.59375 -30.804688 50.59375 -27.984375 L 50.59375 0 L 35.9375 0 L 35.9375 -24.015625 C 35.9375 -26.222656 35.234375 -28.15625 33.828125 -29.8125 C 32.421875 -31.46875 30.585938 -32.296875 28.328125 -32.296875 C 26.117188 -32.296875 24.113281 -31.4375 22.3125 -29.71875 C 20.519531 -28.007812 19.625 -26.109375 19.625 -24.015625 L 19.625 0 Z M 4.96875 0 "/></g></g></g><g fill="#ffffff" fill-opacity="1"><g transform="translate(77.766069, 209.999986)"><g><path d="M 47.953125 -19.21875 L 17.140625 -19.21875 C 17.140625 -16.226562 18.101562 -14.015625 20.03125 -12.578125 C 21.96875 -11.148438 24.066406 -10.4375 26.328125 -10.4375 C 28.703125 -10.4375 30.578125 -10.753906 31.953125 -11.390625 C 33.335938 -12.023438 34.914062 -13.28125 36.6875 -15.15625 L 47.28125 -9.859375 C 42.863281 -2.453125 35.523438 1.25 25.265625 1.25 C 18.859375 1.25 13.363281 -0.941406 8.78125 -5.328125 C 4.195312 -9.722656 1.90625 -15.007812 1.90625 -21.1875 C 1.90625 -27.375 4.195312 -32.675781 8.78125 -37.09375 C 13.363281 -41.507812 18.859375 -43.71875 25.265625 -43.71875 C 31.992188 -43.71875 37.46875 -41.769531 41.6875 -37.875 C 45.914062 -33.988281 48.03125 -28.429688 48.03125 -21.203125 C 48.03125 -20.203125 48.003906 -19.539062 47.953125 -19.21875 Z M 17.5625 -27.328125 L 33.703125 -27.328125 C 33.367188 -29.535156 32.5 -31.234375 31.09375 -32.421875 C 29.6875 -33.609375 27.878906 -34.203125 25.671875 -34.203125 C 23.242188 -34.203125 21.3125 -33.566406 19.875 -32.296875 C 18.4375 -31.023438 17.664062 -29.367188 17.5625 -27.328125 Z M 17.5625 -27.328125 "/></g></g></g><g fill="#ffffff" fill-opacity="1"><g transform="translate(137.383889, 209.999986)"><g><path d="M 23.4375 -43.71875 C 25.863281 -43.71875 28.265625 -43.441406 30.640625 -42.890625 C 33.015625 -42.335938 34.78125 -41.785156 35.9375 -41.234375 L 37.6875 -40.40625 L 32.875 -30.8125 C 29.5625 -32.570312 26.414062 -33.453125 23.4375 -33.453125 C 21.78125 -33.453125 20.601562 -33.269531 19.90625 -32.90625 C 19.21875 -32.550781 18.875 -31.878906 18.875 -30.890625 C 18.875 -30.671875 18.898438 -30.445312 18.953125 -30.21875 C 19.015625 -30 19.128906 -29.789062 19.296875 -29.59375 C 19.460938 -29.40625 19.613281 -29.242188 19.75 -29.109375 C 19.882812 -28.972656 20.117188 -28.820312 20.453125 -28.65625 C 20.785156 -28.488281 21.046875 -28.363281 21.234375 -28.28125 C 21.429688 -28.195312 21.75 -28.070312 22.1875 -27.90625 C 22.632812 -27.738281 22.96875 -27.613281 23.1875 -27.53125 C 23.40625 -27.445312 23.773438 -27.320312 24.296875 -27.15625 C 24.828125 -27 25.226562 -26.890625 25.5 -26.828125 C 27.21875 -26.335938 28.710938 -25.785156 29.984375 -25.171875 C 31.253906 -24.566406 32.59375 -23.738281 34 -22.6875 C 35.40625 -21.644531 36.492188 -20.320312 37.265625 -18.71875 C 38.035156 -17.113281 38.421875 -15.289062 38.421875 -13.25 C 38.421875 -3.582031 31.710938 1.25 18.296875 1.25 C 15.265625 1.25 12.378906 0.78125 9.640625 -0.15625 C 6.910156 -1.101562 4.941406 -2.046875 3.734375 -2.984375 L 1.90625 -4.46875 L 7.875 -14.5 C 8.3125 -14.101562 8.890625 -13.644531 9.609375 -13.125 C 10.328125 -12.601562 11.625 -11.882812 13.5 -10.96875 C 15.375 -10.0625 17.003906 -9.609375 18.390625 -9.609375 C 21.421875 -9.609375 22.9375 -10.628906 22.9375 -12.671875 C 22.9375 -13.609375 22.550781 -14.335938 21.78125 -14.859375 C 21.007812 -15.390625 19.695312 -15.984375 17.84375 -16.640625 C 16 -17.304688 14.550781 -17.914062 13.5 -18.46875 C 10.851562 -19.84375 8.753906 -21.398438 7.203125 -23.140625 C 5.660156 -24.878906 4.890625 -27.1875 4.890625 -30.0625 C 4.890625 -34.363281 6.554688 -37.710938 9.890625 -40.109375 C 13.234375 -42.515625 17.75 -43.71875 23.4375 -43.71875 Z M 23.4375 -43.71875 "/></g></g></g><g fill="#ffffff" fill-opacity="1"><g transform="translate(171.664241, 209.999986)"><g><path d="M 53.5 -42.484375 L 33.296875 -22.1875 L 55.484375 0 L 36.609375 0 L 19.625 -16.984375 L 19.625 0 L 4.96875 0 L 4.96875 -71.21875 L 19.625 -71.21875 L 19.625 -27.65625 L 34.453125 -42.484375 Z M 53.5 -42.484375 "/></g></g></g><g fill="#ffffff" fill-opacity="1"><g transform="translate(218.696502, 209.999986)"><g><path d="M 4.96875 0 L 4.96875 -42.484375 L 19.625 -42.484375 L 19.625 -36.359375 L 19.796875 -36.359375 C 19.898438 -36.578125 20.078125 -36.851562 20.328125 -37.1875 C 20.578125 -37.519531 21.113281 -38.097656 21.9375 -38.921875 C 22.769531 -39.753906 23.65625 -40.5 24.59375 -41.15625 C 25.53125 -41.820312 26.742188 -42.414062 28.234375 -42.9375 C 29.722656 -43.457031 31.242188 -43.71875 32.796875 -43.71875 C 34.398438 -43.71875 35.972656 -43.5 37.515625 -43.0625 C 39.054688 -42.625 40.1875 -42.179688 40.90625 -41.734375 L 42.0625 -41.078125 L 35.9375 -28.65625 C 34.113281 -30.195312 31.578125 -30.96875 28.328125 -30.96875 C 26.554688 -30.96875 25.035156 -30.582031 23.765625 -29.8125 C 22.492188 -29.039062 21.597656 -28.101562 21.078125 -27 C 20.554688 -25.894531 20.179688 -24.953125 19.953125 -24.171875 C 19.734375 -23.398438 19.625 -22.796875 19.625 -22.359375 L 19.625 0 Z M 4.96875 0 "/></g></g></g><g fill="#ffffff" fill-opacity="1"><g transform="translate(269.619846, 209.999986)"><g><path d="M 48.6875 -37.171875 C 52.664062 -32.816406 54.65625 -27.492188 54.65625 -21.203125 C 54.65625 -14.910156 52.664062 -9.59375 48.6875 -5.25 C 44.71875 -0.914062 39.671875 1.25 33.546875 1.25 C 27.910156 1.25 23.269531 -0.765625 19.625 -4.796875 L 19.46875 -4.796875 L 19.46875 0 L 4.96875 0 L 4.96875 -71.21875 L 19.625 -71.21875 L 19.625 -38.421875 C 23.269531 -41.953125 27.910156 -43.71875 33.546875 -43.71875 C 39.671875 -43.71875 44.71875 -41.535156 48.6875 -37.171875 Z M 36.359375 -14.03125 C 38.179688 -15.882812 39.09375 -18.273438 39.09375 -21.203125 C 39.09375 -24.128906 38.140625 -26.53125 36.234375 -28.40625 C 34.328125 -30.28125 31.96875 -31.21875 29.15625 -31.21875 C 26.394531 -31.21875 24.0625 -30.28125 22.15625 -28.40625 C 20.25 -26.53125 19.296875 -24.128906 19.296875 -21.203125 C 19.296875 -18.328125 20.21875 -15.953125 22.0625 -14.078125 C 23.914062 -12.203125 26.28125 -11.265625 29.15625 -11.265625 C 32.132812 -11.265625 34.535156 -12.1875 36.359375 -14.03125 Z M 36.359375 -14.03125 "/></g></g></g><g fill="#ffffff" fill-opacity="1"><g transform="translate(319.715897, 209.999986)"><g><path d="M 47.953125 -19.21875 L 17.140625 -19.21875 C 17.140625 -16.226562 18.101562 -14.015625 20.03125 -12.578125 C 21.96875 -11.148438 24.066406 -10.4375 26.328125 -10.4375 C 28.703125 -10.4375 30.578125 -10.753906 31.953125 -11.390625 C 33.335938 -12.023438 34.914062 -13.28125 36.6875 -15.15625 L 47.28125 -9.859375 C 42.863281 -2.453125 35.523438 1.25 25.265625 1.25 C 18.859375 1.25 13.363281 -0.941406 8.78125 -5.328125 C 4.195312 -9.722656 1.90625 -15.007812 1.90625 -21.1875 C 1.90625 -27.375 4.195312 -32.675781 8.78125 -37.09375 C 13.363281 -41.507812 18.859375 -43.71875 25.265625 -43.71875 C 31.992188 -43.71875 37.46875 -41.769531 41.6875 -37.875 C 45.914062 -33.988281 48.03125 -28.429688 48.03125 -21.203125 C 48.03125 -20.203125 48.003906 -19.539062 47.953125 -19.21875 Z M 17.5625 -27.328125 L 33.703125 -27.328125 C 33.367188 -29.535156 32.5 -31.234375 31.09375 -32.421875 C 29.6875 -33.609375 27.878906 -34.203125 25.671875 -34.203125 C 23.242188 -34.203125 21.3125 -33.566406 19.875 -32.296875 C 18.4375 -31.023438 17.664062 -29.367188 17.5625 -27.328125 Z M 17.5625 -27.328125 "/></g></g></g><g clip-path="url(#e408cf2351)"><g clip-path="url(#66af55992b)"><g clip-path="url(#d97ccd373a)"><path fill="#ffffff" d="M 148.492188 250.589844 C 149.175781 250.992188 149.824219 251.378906 150.554688 250.8125 C 151.5625 250.878906 152.441406 250.445312 153.367188 250.132812 C 155.042969 249.554688 156.695312 248.902344 158.34375 248.226562 C 159.855469 247.597656 161.4375 247.105469 162.878906 246.28125 C 164.242188 245.5 165.664062 244.738281 167.164062 244.25 C 168.367188 243.863281 169.460938 243.277344 170.617188 242.789062 C 171.71875 242.328125 172.726562 241.6875 173.828125 241.242188 C 175.476562 240.566406 176.941406 239.480469 178.683594 239 C 179.175781 238.851562 179.597656 238.464844 180.066406 238.238281 C 180.945312 237.789062 181.816406 237.214844 182.746094 236.960938 C 183.679688 236.710938 184.230469 235.835938 185.210938 235.738281 C 187.75 234.46875 190.316406 233.242188 192.925781 232.128906 C 193.101562 232.058594 193.273438 231.929688 193.449219 231.816406 C 194.867188 230.933594 196.378906 230.285156 197.929688 229.675781 C 198.480469 229.464844 199.011719 229.253906 199.492188 228.84375 C 199.914062 228.480469 200.546875 228.304688 201.121094 228.171875 C 202.347656 227.859375 203.441406 227.277344 204.488281 226.59375 C 204.644531 226.484375 204.839844 226.414062 205.015625 226.34375 C 207.078125 225.484375 209.160156 224.621094 211.21875 223.742188 C 211.945312 223.441406 212.621094 222.960938 213.375 222.757812 C 214.148438 222.554688 214.898438 222.308594 215.578125 221.890625 C 215.847656 221.734375 216.210938 221.753906 216.527344 221.636719 C 217.195312 221.375 217.863281 221.078125 218.527344 220.777344 C 219.136719 220.503906 219.71875 220.167969 220.332031 219.972656 C 223.632812 218.984375 226.722656 217.503906 229.929688 216.296875 C 231.167969 215.828125 232.410156 215.394531 233.679688 215.0625 C 234.707031 214.785156 235.644531 214.308594 236.652344 214.011719 C 237.839844 213.640625 239.054688 213.492188 240.21875 213.066406 C 241.8125 212.472656 243.480469 212.480469 245.125 212.40625 C 245.523438 212.386719 245.902344 212.363281 246.296875 212.542969 C 247.488281 213.039062 247.519531 213.21875 247.601562 214.277344 C 247.664062 215.097656 247.566406 215.847656 247.207031 216.589844 C 246.882812 217.25 246.640625 217.929688 246.355469 218.585938 C 246.851562 218.859375 247.371094 218.8125 247.765625 218.628906 C 248.664062 218.214844 249.664062 218.078125 250.539062 217.589844 C 251.6875 216.960938 252.972656 216.566406 254.144531 215.9375 C 255.371094 215.285156 256.667969 214.769531 257.878906 214.121094 C 259.753906 213.128906 261.625 212.140625 263.566406 211.289062 C 263.625 211.265625 263.703125 211.238281 263.742188 211.199219 C 264.417969 210.355469 265.386719 210.421875 266.308594 210.390625 C 266.507812 210.378906 266.695312 210.449219 266.917969 210.476562 C 266.730469 211.410156 266.347656 212.136719 265.464844 212.507812 C 264.226562 213 263.210938 213.878906 262.058594 214.488281 C 260.949219 215.09375 259.882812 215.777344 258.769531 216.359375 C 257.128906 217.214844 255.492188 218.09375 253.78125 218.8125 C 252.941406 219.179688 252.144531 219.667969 251.324219 220.097656 C 250.035156 220.769531 248.582031 220.992188 247.203125 221.472656 C 246.648438 221.664062 246.003906 221.621094 245.402344 221.617188 C 245.160156 221.609375 244.890625 221.484375 244.683594 221.355469 C 244.289062 221.117188 243.945312 220.753906 243.554688 220.554688 C 243.199219 220.371094 243.125 220.097656 243.066406 219.757812 C 242.90625 218.703125 243.15625 217.785156 243.855469 216.980469 C 244.117188 216.683594 244.402344 216.40625 244.5 216 C 244.566406 215.695312 244.871094 215.4375 244.691406 215.0625 C 244.597656 214.867188 243.632812 214.480469 243.4375 214.613281 C 242.78125 215.089844 242.027344 214.894531 241.3125 215.054688 C 240.480469 215.242188 239.671875 215.488281 238.84375 215.777344 C 236.359375 216.621094 233.777344 217.1875 231.394531 218.367188 C 230.511719 218.414062 229.707031 218.761719 228.96875 219.1875 C 228.441406 219.476562 227.714844 218.734375 227.402344 219.617188 C 226.796875 219.871094 226.1875 220.105469 225.578125 220.363281 C 225.027344 220.574219 224.476562 220.804688 223.925781 221.015625 C 222.625 221.472656 221.425781 222.261719 220 222.324219 C 219.640625 222.34375 219.4375 222.636719 219.1875 222.871094 C 218.976562 223.066406 218.765625 223.195312 218.476562 223.054688 C 218.289062 222.984375 218.125 222.890625 217.933594 223.042969 C 216.871094 223.847656 215.632812 224.316406 214.414062 224.808594 C 211.863281 225.878906 209.335938 227.023438 206.734375 227.953125 C 206.480469 228.050781 206.25 228.242188 206.007812 228.257812 C 205.429688 228.289062 204.996094 228.496094 204.621094 228.917969 C 204.355469 229.214844 204.03125 229.152344 203.71875 228.96875 C 203.449219 228.804688 203.171875 228.898438 203 229.089844 C 202.625 229.53125 202.175781 229.738281 201.613281 229.75 C 201.25 229.75 201.023438 230.023438 200.777344 230.257812 C 200.644531 230.386719 200.414062 230.582031 200.289062 230.546875 C 199.449219 230.273438 198.933594 230.746094 198.378906 231.238281 C 198.1875 231.410156 197.914062 231.546875 197.675781 231.558594 C 197.175781 231.609375 196.761719 231.730469 196.441406 232.132812 C 196.101562 232.550781 195.597656 232.460938 195.160156 232.566406 C 194.78125 232.648438 194.75 233.511719 194.121094 233.046875 C 193.710938 233.25 193.300781 233.433594 192.867188 233.640625 C 192.4375 233.824219 192.003906 233.988281 191.59375 234.191406 C 191.066406 234.445312 190.539062 234.734375 189.96875 234.929688 C 189.355469 235.144531 188.773438 235.519531 188.363281 236.082031 C 188.140625 236.398438 187.882812 236.472656 187.511719 236.292969 C 187.386719 236.21875 187.132812 236.332031 186.976562 236.402344 C 186.40625 236.636719 185.964844 237.023438 185.570312 237.507812 C 185.367188 237.78125 185.070312 237.898438 184.714844 237.957031 C 182.839844 238.242188 182.546875 238.402344 180.871094 239.660156 C 180.5625 239.898438 180.191406 240.121094 179.816406 240.203125 C 179.398438 240.304688 179.027344 240.46875 178.824219 240.820312 C 178.476562 241.382812 177.855469 240.695312 177.617188 241.089844 C 177.339844 241.546875 177.121094 241.601562 176.671875 241.445312 C 176.324219 241.324219 176.414062 241.859375 176.175781 241.914062 C 175.996094 241.964844 175.746094 241.816406 175.613281 241.90625 C 174.25 242.726562 172.6875 243.15625 171.28125 243.878906 C 170.246094 244.417969 169.308594 245.214844 168.089844 245.382812 C 167.914062 245.414062 167.679688 245.570312 167.609375 245.714844 C 167.292969 246.535156 166.371094 246.246094 165.878906 246.734375 C 165.398438 247.183594 164.816406 247.519531 164.117188 247.617188 C 163.9375 247.648438 163.789062 247.835938 163.613281 247.925781 C 162.734375 248.398438 161.855469 248.808594 160.886719 249.105469 C 159.582031 249.5 158.355469 250.214844 157.105469 250.804688 C 155.734375 251.464844 154.347656 252.148438 152.851562 252.351562 C 151.8125 252.492188 150.839844 252.707031 149.898438 253.082031 C 149.625 253.199219 149.394531 253.089844 149.148438 252.984375 C 148.964844 252.914062 148.765625 252.925781 148.5625 252.894531 C 148.238281 252.855469 147.984375 253.351562 147.648438 253.085938 C 147.035156 252.578125 146.164062 252.449219 145.703125 251.710938 C 145.636719 251.613281 145.566406 251.4375 145.601562 251.355469 C 145.898438 250.554688 145.929688 249.667969 146.449219 248.933594 C 147.210938 247.847656 147.871094 246.683594 148.738281 245.710938 C 149.171875 245.207031 149.398438 244.570312 149.917969 244.136719 C 150.378906 243.75 150.542969 243.097656 150.917969 242.675781 C 152.1875 241.316406 153.269531 239.828125 154.414062 238.398438 C 155.484375 237.054688 156.808594 235.933594 157.605469 234.359375 C 158.019531 233.554688 158.875 233.003906 159.203125 232.101562 C 159.398438 231.609375 159.777344 231.183594 159.929688 230.695312 C 160.03125 230.386719 160.492188 230.019531 160.007812 229.625 C 159.652344 229.324219 159.414062 229.757812 159.113281 229.753906 C 157.402344 229.730469 155.953125 230.71875 154.316406 230.910156 C 152.957031 231.75 151.457031 232.257812 149.960938 232.78125 C 148.789062 233.792969 147.261719 234.140625 145.960938 234.898438 C 144.636719 235.65625 143.3125 236.433594 141.96875 237.152344 C 141.265625 237.53125 140.652344 238.050781 139.816406 238.175781 C 139.515625 238.234375 139.125 238.4375 138.980469 238.6875 C 138.519531 239.4375 137.832031 239.734375 137.039062 239.941406 C 136.921875 239.96875 136.808594 240.074219 136.710938 240.160156 C 135.382812 241.179688 133.894531 241.90625 132.5 242.808594 C 132.171875 243.027344 131.886719 243.347656 131.535156 243.488281 C 130.527344 243.84375 129.769531 244.632812 128.761719 244.949219 C 128.425781 245.046875 128.152344 245.183594 127.84375 245.019531 C 127.699219 244.949219 127.558594 244.976562 127.546875 245.160156 C 127.457031 246.347656 126.3125 246.375 125.617188 246.894531 C 125.125 246.722656 124.851562 246.835938 124.597656 247.355469 C 124.382812 247.828125 123.917969 248.136719 123.410156 248.386719 C 122.589844 248.792969 121.773438 249.261719 120.996094 249.765625 C 118.707031 251.242188 116.308594 252.542969 114.042969 254.039062 C 112.320312 255.179688 110.417969 255.992188 108.84375 257.34375 C 108.003906 257.433594 107.527344 258.203125 106.777344 258.445312 C 106.441406 258.546875 106.105469 258.664062 105.960938 258.953125 C 105.671875 259.53125 104.960938 259.414062 104.601562 259.8125 C 104.246094 260.238281 103.773438 260.445312 103.328125 260.710938 C 102.824219 261.019531 102.539062 261.660156 101.808594 261.597656 C 100.917969 262.515625 99.496094 262.59375 98.648438 263.605469 C 97.898438 263.871094 97.171875 264.171875 96.5625 264.730469 C 96.027344 265.222656 95.183594 265.226562 94.734375 265.855469 C 93.425781 266.152344 92.34375 266.9375 91.191406 267.523438 C 90.058594 268.089844 88.898438 268.554688 87.742188 269.023438 C 86.1875 269.652344 83.558594 270.0625 82.082031 269.886719 C 81.171875 269.777344 80.199219 269.628906 79.5 268.984375 C 79.160156 268.683594 78.964844 268.433594 78.519531 268.71875 C 78.441406 268.765625 78.242188 268.753906 78.179688 268.699219 C 77.863281 268.457031 77.566406 268.191406 77.269531 267.90625 C 76.738281 267.394531 76.128906 266.945312 75.714844 266.367188 C 75.363281 265.84375 75.722656 265.039062 75.265625 264.460938 C 75.488281 264.148438 75.105469 263.726562 75.277344 263.558594 C 75.980469 262.894531 75.714844 262.066406 75.769531 261.300781 C 75.777344 261.058594 75.863281 260.773438 76.011719 260.5625 C 76.71875 259.597656 77.078125 258.433594 77.910156 257.542969 C 78.082031 257.351562 78.226562 257.101562 78.316406 256.875 C 78.9375 255.472656 79.8125 254.238281 80.769531 253.039062 C 81.148438 252.578125 81.441406 252.058594 81.753906 251.558594 C 82.394531 250.476562 83.355469 249.660156 84.015625 248.597656 C 85.160156 246.742188 86.761719 245.226562 87.734375 243.242188 C 87.84375 243.015625 88.050781 242.804688 88.222656 242.613281 C 89.1875 241.59375 89.90625 240.40625 90.621094 239.222656 C 90.75 238.992188 90.898438 238.765625 91.089844 238.574219 C 92.460938 237.269531 93.417969 235.667969 94.539062 234.179688 C 95.511719 232.898438 96.484375 231.65625 97.542969 230.453125 C 97.75 230.199219 97.957031 229.925781 98.078125 229.617188 C 98.328125 229.042969 98.71875 228.519531 99.207031 228.230469 C 100.277344 227.625 100.660156 226.558594 101.167969 225.585938 C 101.476562 225.007812 101.785156 224.425781 102.21875 223.898438 C 102.933594 223.054688 103.523438 222.097656 103.917969 220.910156 C 103.015625 220.921875 102.308594 220.878906 101.621094 221.542969 C 101.011719 222.117188 100.230469 222.523438 99.246094 222.179688 C 98.691406 221.988281 98.113281 222.402344 97.9375 222.835938 C 97.601562 223.675781 97.042969 224.109375 96.210938 224.296875 C 95.296875 225.195312 94.097656 225.664062 93.007812 226.308594 C 92.210938 226.773438 91.390625 227.164062 90.613281 227.648438 C 89.835938 228.132812 88.992188 228.484375 88.21875 229.007812 C 87.734375 229.339844 87.1875 229.589844 86.636719 229.863281 C 86.285156 230.042969 85.914062 230.183594 85.5625 230.363281 C 84.625 230.859375 83.820312 231.527344 82.839844 231.964844 C 81.9375 232.355469 81.171875 233.023438 80.316406 233.535156 C 79.402344 234.085938 78.488281 234.621094 77.554688 235.15625 C 76.695312 235.648438 75.796875 236.121094 74.941406 236.609375 C 74.027344 237.144531 73.09375 237.660156 72.199219 238.230469 C 70.980469 239.023438 69.847656 239.972656 68.554688 240.605469 C 67.460938 241.152344 66.667969 242.019531 65.636719 242.621094 C 64.605469 243.222656 63.640625 243.917969 62.609375 244.519531 C 61.691406 245.03125 60.886719 245.742188 60.042969 246.390625 C 59.773438 246.609375 59.183594 246.179688 59.160156 246.824219 C 58.773438 247.066406 58.363281 247.308594 57.996094 247.570312 C 57.667969 247.8125 57.382812 248.089844 57.074219 248.328125 C 56.710938 248.609375 56.34375 248.890625 55.957031 249.152344 C 55.628906 249.375 55.253906 249.535156 54.925781 249.753906 C 54.539062 250.015625 54.195312 250.339844 53.808594 250.601562 C 53.480469 250.820312 53.0625 250.945312 52.777344 251.203125 C 51.34375 252.507812 49.625 253.390625 47.972656 254.367188 C 47.46875 254.675781 47.03125 255.121094 46.503906 255.394531 C 45.917969 255.6875 45.597656 256.429688 44.808594 256.375 C 44.542969 256.972656 43.992188 257.203125 43.4375 257.375 C 42.574219 258.410156 41.382812 259.039062 40.367188 259.878906 C 39.65625 260.460938 38.859375 260.949219 38.105469 261.492188 C 37.835938 261.691406 37.542969 261.847656 37.316406 262.082031 C 36.765625 262.652344 36.210938 263.207031 35.320312 263.058594 C 34.875 263.34375 34.300781 263.476562 34.152344 264.066406 C 34.019531 264.558594 33.671875 264.859375 33.351562 265.199219 C 33.121094 265.429688 32.695312 264.953125 32.5625 265.484375 C 32.449219 265.933594 31.945312 265.941406 31.679688 266.234375 C 31.476562 266.488281 31.078125 266.589844 30.910156 266.84375 C 30.617188 267.339844 30.273438 267.660156 29.652344 267.636719 C 29.367188 267.632812 29.179688 267.824219 29.136719 268.148438 C 29.113281 268.410156 29.066406 268.652344 28.8125 268.828125 C 27.148438 269.929688 25.914062 271.542969 24.3125 272.71875 C 23.269531 273.503906 22.363281 274.519531 21.082031 274.972656 C 20.964844 275.019531 20.789062 275.128906 20.792969 275.1875 C 20.851562 276.230469 19.863281 276.164062 19.339844 276.535156 C 19.011719 276.757812 18.660156 276.957031 18.417969 277.292969 C 17.914062 277.964844 17.519531 278.769531 16.886719 279.308594 C 16.273438 279.824219 15.675781 280.339844 15.128906 280.914062 C 15.089844 280.957031 15.035156 281.039062 14.992188 281.042969 C 14.894531 281.066406 14.773438 281.054688 14.671875 281.039062 C 14.632812 281.023438 14.585938 280.945312 14.582031 280.863281 C 14.515625 280.40625 14.46875 279.925781 14.828125 279.542969 C 15.1875 279.160156 15.484375 278.664062 15.90625 278.359375 C 16.972656 277.636719 17.738281 276.628906 18.613281 275.714844 C 18.707031 275.609375 18.78125 275.484375 18.875 275.417969 C 19.773438 274.925781 20.222656 274.015625 20.929688 273.351562 C 21.0625 273.226562 21.152344 273 21.308594 272.949219 C 21.664062 272.808594 22.144531 272.820312 21.8125 272.21875 C 21.8125 272.21875 23.316406 270.765625 23.335938 270.765625 C 23.511719 270.695312 23.773438 270.660156 23.84375 270.515625 C 24.121094 270.097656 24.164062 269.433594 24.945312 269.710938 C 25.183594 269.316406 25.445312 268.9375 25.988281 268.949219 C 26.789062 268.199219 27.953125 267.792969 28.324219 266.585938 C 28.394531 266.359375 28.699219 266.082031 28.898438 266.070312 C 29.601562 266.03125 29.933594 265.511719 30.351562 265.085938 C 30.578125 264.851562 30.78125 264.558594 31.054688 264.382812 C 32.765625 263.339844 34.042969 261.824219 35.5625 260.550781 C 36.730469 259.582031 37.792969 258.476562 39.117188 257.71875 C 39.535156 256.933594 40.570312 257.09375 41.074219 256.441406 C 41.582031 255.8125 42.175781 255.296875 42.855469 254.875 C 43.03125 254.765625 43.140625 254.578125 43.296875 254.488281 C 45.34375 253.390625 47.148438 251.902344 49.046875 250.589844 C 50.429688 250.1875 51.21875 248.878906 52.515625 248.34375 C 52.828125 247.84375 53.496094 247.90625 53.859375 247.585938 C 54.546875 246.984375 55.417969 246.691406 56.039062 245.996094 C 56.476562 245.507812 57.058594 245.152344 57.640625 244.820312 C 58.398438 244.375 59.078125 243.914062 59.726562 243.316406 C 60.453125 242.652344 61.375 242.21875 62.164062 241.609375 C 62.894531 241.027344 63.667969 240.519531 64.488281 240.074219 C 65.246094 239.648438 65.921875 239.128906 66.636719 238.644531 C 68.375 237.421875 70.164062 236.296875 71.96875 235.167969 C 74.9375 233.292969 77.96875 231.515625 81.027344 229.757812 C 82.621094 228.84375 84.152344 227.792969 85.746094 226.878906 C 87.363281 225.960938 88.953125 224.96875 90.59375 224.113281 C 92.214844 223.257812 93.789062 222.304688 95.519531 221.625 C 95.988281 221.4375 96.390625 221.035156 96.835938 220.765625 C 99.320312 219.21875 102.011719 218.105469 104.796875 217.265625 C 105.664062 216.992188 106.65625 217.078125 107.578125 217.027344 C 108.039062 217 108.453125 217.621094 108.421875 218.144531 C 108.34375 219.574219 107.773438 220.875 107.117188 222.078125 C 106.089844 224.164062 104.738281 226.210938 103.324219 228.21875 C 103.175781 228.425781 102.964844 228.621094 102.796875 228.808594 C 101.679688 230.058594 100.792969 231.433594 99.886719 232.832031 C 99.8125 232.9375 99.757812 233.0625 99.664062 233.167969 C 98.390625 234.445312 97.515625 236.039062 96.347656 237.414062 C 95.332031 238.613281 94.378906 239.894531 93.507812 241.230469 C 92.789062 242.335938 91.941406 243.367188 91.136719 244.4375 C 90.503906 245.296875 89.867188 246.136719 89.230469 246.996094 C 88.804688 247.582031 88.4375 248.207031 87.988281 248.796875 C 87.535156 249.363281 87.0625 249.890625 86.699219 250.554688 C 86.371094 251.15625 85.585938 251.460938 85.40625 252.234375 C 85.210938 253.050781 84.371094 253.460938 84.03125 254.183594 C 83.707031 254.863281 83.132812 255.339844 82.765625 255.960938 C 81.628906 257.894531 80.136719 259.605469 79.335938 261.761719 C 79.035156 262.542969 79.382812 263.367188 78.964844 264.09375 C 79.09375 264.609375 79.199219 265.105469 79.371094 265.597656 C 79.417969 265.734375 79.664062 265.84375 79.828125 265.871094 C 80.660156 266.027344 81.527344 266.078125 82.363281 266.3125 C 83.445312 266.613281 84.445312 266.558594 85.46875 266.136719 C 85.902344 265.972656 86.359375 265.90625 86.792969 265.78125 C 88 265.414062 89.15625 264.925781 90.222656 264.242188 C 90.710938 263.933594 91.324219 263.796875 91.851562 263.507812 C 92.882812 262.90625 93.960938 262.445312 94.96875 261.785156 C 96.636719 260.707031 98.410156 259.761719 100.125 258.761719 C 101.894531 257.738281 103.640625 256.652344 105.300781 255.414062 C 105.394531 255.328125 105.535156 255.28125 105.648438 255.214844 C 108.039062 253.773438 110.429688 252.332031 112.800781 250.871094 C 113.539062 250.429688 114.207031 249.808594 114.976562 249.523438 C 115.820312 249.195312 116.476562 248.714844 117.167969 248.175781 C 117.324219 248.046875 117.519531 247.972656 117.695312 247.882812 C 118.808594 247.296875 119.898438 246.695312 120.945312 246.011719 C 122.011719 245.328125 123.148438 244.785156 124.214844 244.121094 C 125.320312 243.433594 126.710938 243.15625 127.554688 242.042969 C 128.710938 241.859375 129.351562 240.757812 130.5 240.46875 C 131.152344 240.3125 131.699219 239.660156 132.324219 239.304688 C 135.90625 237.253906 139.464844 235.183594 143.070312 233.171875 C 144.570312 232.34375 146.136719 231.632812 147.703125 230.921875 C 149.390625 230.183594 151.050781 229.34375 152.808594 228.785156 C 153.875 228.441406 154.960938 228.140625 156.007812 227.800781 C 157.960938 227.167969 159.957031 227.296875 161.9375 227.125 C 162.578125 227.066406 162.707031 227.242188 162.507812 227.9375 C 162.421875 228.222656 162.417969 228.484375 162.664062 228.609375 C 162.996094 228.773438 163.207031 228.921875 163.089844 229.351562 C 162.574219 231.308594 161.75 233.082031 160.347656 234.566406 C 160.3125 234.609375 160.253906 234.652344 160.214844 234.714844 C 159.941406 235.152344 159.664062 235.613281 159.367188 236.050781 C 159.089844 236.488281 158.414062 236.585938 158.328125 237.195312 C 156.984375 238.675781 156.0625 240.496094 154.589844 241.867188 C 153.867188 242.550781 153.222656 243.269531 152.769531 244.160156 C 152.609375 244.507812 152.347656 244.84375 152.0625 245.121094 C 150.996094 246.148438 150.222656 247.398438 149.40625 248.609375 C 149.039062 249.230469 148.796875 249.949219 148.492188 250.589844 Z M 148.492188 250.589844 " fill-opacity="1" fill-rule="nonzero"/></g></g></g><g clip-path="url(#1d37715080)"><path fill="#000000" d="M 81.695312 174.203125 C 81.785156 175.003906 81.9375 175.789062 82.160156 176.5625 C 82.378906 177.335938 82.664062 178.085938 83.011719 178.8125 C 83.359375 179.535156 83.765625 180.226562 84.230469 180.882812 C 84.695312 181.539062 85.210938 182.152344 85.777344 182.71875 C 86.347656 183.289062 86.960938 183.804688 87.617188 184.269531 C 88.273438 184.734375 88.960938 185.140625 89.6875 185.488281 C 90.414062 185.835938 91.160156 186.121094 91.933594 186.339844 C 92.707031 186.558594 93.492188 186.714844 94.292969 186.800781 C 98.160156 187.226562 103.152344 187.5 109.59375 187.5 C 103.152344 187.5 98.160156 187.773438 94.292969 188.195312 C 93.492188 188.285156 92.707031 188.4375 91.933594 188.660156 C 91.160156 188.878906 90.414062 189.164062 89.6875 189.511719 C 88.960938 189.859375 88.273438 190.265625 87.617188 190.730469 C 86.960938 191.195312 86.347656 191.710938 85.777344 192.277344 C 85.210938 192.847656 84.695312 193.460938 84.230469 194.117188 C 83.765625 194.773438 83.359375 195.460938 83.011719 196.1875 C 82.664062 196.910156 82.378906 197.660156 82.160156 198.433594 C 81.9375 199.207031 81.785156 199.992188 81.695312 200.792969 C 81.273438 204.660156 81 209.652344 81 216.09375 C 81 209.652344 80.726562 204.660156 80.300781 200.792969 C 80.214844 199.992188 80.0625 199.207031 79.839844 198.433594 C 79.621094 197.660156 79.335938 196.910156 78.988281 196.1875 C 78.640625 195.460938 78.234375 194.773438 77.769531 194.117188 C 77.304688 193.460938 76.789062 192.847656 76.21875 192.277344 C 75.652344 191.710938 75.039062 191.195312 74.382812 190.730469 C 73.726562 190.265625 73.035156 189.859375 72.3125 189.511719 C 71.585938 189.164062 70.835938 188.878906 70.0625 188.660156 C 69.289062 188.4375 68.503906 188.285156 67.707031 188.195312 C 63.839844 187.773438 58.847656 187.5 52.402344 187.5 C 58.847656 187.5 63.839844 187.226562 67.707031 186.800781 C 68.503906 186.714844 69.289062 186.558594 70.0625 186.339844 C 70.835938 186.121094 71.585938 185.835938 72.3125 185.488281 C 73.035156 185.140625 73.726562 184.734375 74.382812 184.269531 C 75.039062 183.804688 75.652344 183.289062 76.21875 182.71875 C 76.789062 182.152344 77.304688 181.539062 77.769531 180.882812 C 78.234375 180.226562 78.640625 179.535156 78.988281 178.8125 C 79.335938 178.085938 79.621094 177.335938 79.839844 176.5625 C 80.058594 175.789062 80.214844 175.003906 80.300781 174.203125 C 80.726562 170.339844 81 165.347656 81 158.902344 C 81 165.347656 81.273438 170.339844 81.695312 174.203125 Z M 81.695312 174.203125 " fill-opacity="1" fill-rule="nonzero"/></g><g clip-path="url(#6970347998)"><path fill="#000000" d="M 323.839844 174.203125 C 323.925781 175.003906 324.078125 175.789062 324.300781 176.5625 C 324.519531 177.335938 324.804688 178.085938 325.152344 178.8125 C 325.5 179.535156 325.90625 180.226562 326.371094 180.882812 C 326.835938 181.539062 327.351562 182.152344 327.921875 182.71875 C 328.488281 183.289062 329.101562 183.804688 329.757812 184.269531 C 330.414062 184.734375 331.105469 185.140625 331.828125 185.488281 C 332.554688 185.835938 333.300781 186.121094 334.074219 186.339844 C 334.847656 186.558594 335.636719 186.714844 336.433594 186.800781 C 340.300781 187.226562 345.292969 187.5 351.734375 187.5 C 345.292969 187.5 340.300781 187.773438 336.433594 188.195312 C 335.636719 188.285156 334.847656 188.4375 334.074219 188.660156 C 333.300781 188.878906 332.554688 189.164062 331.828125 189.511719 C 331.101562 189.859375 330.414062 190.265625 329.757812 190.730469 C 329.101562 191.195312 328.488281 191.710938 327.921875 192.277344 C 327.351562 192.847656 326.835938 193.460938 326.371094 194.117188 C 325.90625 194.773438 325.5 195.460938 325.152344 196.1875 C 324.804688 196.910156 324.519531 197.660156 324.300781 198.433594 C 324.078125 199.207031 323.925781 199.992188 323.839844 200.792969 C 323.414062 204.660156 323.140625 209.652344 323.140625 216.09375 C 323.140625 209.652344 322.867188 204.660156 322.441406 200.792969 C 322.355469 199.992188 322.203125 199.207031 321.980469 198.433594 C 321.761719 197.660156 321.476562 196.910156 321.128906 196.1875 C 320.78125 195.460938 320.375 194.773438 319.910156 194.117188 C 319.445312 193.460938 318.929688 192.847656 318.359375 192.277344 C 317.792969 191.710938 317.179688 191.195312 316.523438 190.730469 C 315.867188 190.265625 315.175781 189.859375 314.453125 189.511719 C 313.726562 189.164062 312.976562 188.878906 312.203125 188.660156 C 311.433594 188.4375 310.644531 188.285156 309.847656 188.195312 C 305.980469 187.773438 300.988281 187.5 294.546875 187.5 C 300.988281 187.5 305.980469 187.226562 309.847656 186.800781 C 310.644531 186.714844 311.433594 186.558594 312.203125 186.339844 C 312.976562 186.121094 313.726562 185.835938 314.453125 185.488281 C 315.175781 185.140625 315.867188 184.734375 316.523438 184.269531 C 317.179688 183.804688 317.792969 183.289062 318.359375 182.71875 C 318.929688 182.152344 319.445312 181.539062 319.910156 180.882812 C 320.375 180.226562 320.78125 179.535156 321.128906 178.8125 C 321.476562 178.085938 321.761719 177.335938 321.980469 176.5625 C 322.203125 175.789062 322.355469 175.003906 322.441406 174.203125 C 322.867188 170.339844 323.140625 165.347656 323.140625 158.902344 C 323.140625 165.347656 323.414062 170.339844 323.839844 174.203125 Z M 323.839844 174.203125 " fill-opacity="1" fill-rule="nonzero"/></g><g clip-path="url(#02164a3030)"><g clip-path="url(#634de785ba)"><path fill="#000000" d="M 264.449219 204.523438 L 276.148438 204.523438 L 276.148438 222.667969 L 264.449219 222.667969 Z M 264.449219 204.523438 " fill-opacity="1" fill-rule="nonzero"/></g></g><g clip-path="url(#980b3cf4d7)"><g clip-path="url(#1a7d55d52f)"><path fill="#000000" d="M 262.726562 207.898438 L 275.476562 207.898438 L 275.476562 222.542969 L 262.726562 222.542969 Z M 262.726562 207.898438 " fill-opacity="1" fill-rule="nonzero"/></g></g><g clip-path="url(#71c785493e)"><g clip-path="url(#ccd591e96d)"><path fill="#000000" d="M 261 204.75 L 273.375 204.75 L 273.375 220.121094 L 261 220.121094 Z M 261 204.75 " fill-opacity="1" fill-rule="nonzero"/></g></g><g clip-path="url(#ce51528348)"><g clip-path="url(#1c8017fbff)"><g clip-path="url(#1500f804da)"><path fill="#ffffff" d="M 252.035156 79.117188 L 259.871094 79.140625 L 259.890625 72.761719 L 252.050781 72.734375 L 252.035156 79.117188 " fill-opacity="1" fill-rule="nonzero"/></g></g></g><g clip-path="url(#fef6b79706)"><g clip-path="url(#5afc664fc8)"><g clip-path="url(#de56ee1777)"><path fill="#ffffff" d="M 258.917969 81.011719 C 258.910156 82.273438 259.929688 83.296875 261.1875 83.300781 L 271.507812 83.332031 C 272.765625 83.339844 273.789062 82.316406 273.792969 81.058594 L 273.863281 59.015625 C 273.878906 54.390625 271.101562 54.382812 269.839844 54.378906 L 262.9375 54.359375 C 261.679688 54.355469 259 54.347656 258.984375 58.964844 L 258.917969 81.011719 " fill-opacity="1" fill-rule="nonzero"/></g></g></g><g clip-path="url(#64e92e9225)"><g clip-path="url(#305c292e67)"><g clip-path="url(#3aa6468a90)"><path fill="#ffffff" d="M 248.695312 128.25 C 248.691406 129.507812 249.011719 130.535156 249.414062 130.53125 L 252.707031 130.542969 C 253.113281 130.542969 253.441406 129.523438 253.445312 128.265625 L 253.550781 72.5625 C 253.566406 67.9375 252.675781 67.933594 252.273438 67.929688 L 250.070312 67.925781 C 249.664062 67.925781 248.8125 67.921875 248.796875 72.546875 L 248.695312 128.25 " fill-opacity="1" fill-rule="nonzero"/></g></g></g><g clip-path="url(#03d6986cc4)"><g clip-path="url(#d8e2cffbac)"><g clip-path="url(#3348546513)"><path fill="#ffffff" d="M 273.828125 68.949219 L 273.691406 190.777344 L 266.1875 210.957031 L 258.808594 190.726562 L 258.957031 68.902344 L 273.828125 68.949219 " fill-opacity="1" fill-rule="nonzero"/></g></g></g><g clip-path="url(#90be36eb89)"><g clip-path="url(#06ab0ce4c3)"><g clip-path="url(#d06484adee)"><path fill="#ffffff" d="M 273.691406 190.777344 L 266.1875 210.957031 L 258.808594 190.726562 Z M 273.691406 190.777344 " fill-opacity="1" fill-rule="nonzero"/></g></g></g><g clip-path="url(#62523a7958)"><g clip-path="url(#64864fdf57)"><g clip-path="url(#e8541d542b)"><path fill="#ffffff" d="M 269.15625 202.972656 L 266.1875 210.957031 L 263.261719 202.921875 Z M 269.15625 202.972656 " fill-opacity="1" fill-rule="nonzero"/></g></g></g><g clip-path="url(#20503607fe)"><g clip-path="url(#ad7130c0b7)"><g clip-path="url(#4feb02c9f6)"><path fill="#ffffff" d="M 258.917969 81.011719 L 273.792969 81.058594 L 273.828125 68.949219 L 258.957031 68.902344 L 258.917969 81.011719 " fill-opacity="1" fill-rule="nonzero"/></g></g></g><g clip-path="url(#87d5b08796)"><path fill="#1e0b4c" d="M 258.5625 100.316406 L 258.5625 105.597656 L 273.949219 95.320312 L 273.949219 90.035156 Z M 258.5625 100.316406 " fill-opacity="1" fill-rule="nonzero"/></g><g clip-path="url(#963ccb9582)"><path fill="#4c0b24" d="M 258.5625 108.097656 L 258.5625 113.382812 L 273.949219 103.101562 L 273.949219 97.816406 Z M 258.5625 108.097656 " fill-opacity="1" fill-rule="nonzero"/></g><g clip-path="url(#87c0402675)"><path fill="#0b3a4c" d="M 258.5625 115.878906 L 258.5625 121.164062 L 273.949219 110.882812 L 273.949219 105.597656 Z M 258.5625 115.878906 " fill-opacity="1" fill-rule="nonzero"/></g><g clip-path="url(#404fe0958b)"><path fill="#4c4c0b" d="M 258.699219 123.660156 L 258.699219 128.945312 L 274.082031 118.664062 L 274.082031 113.378906 Z M 258.699219 123.660156 " fill-opacity="1" fill-rule="nonzero"/></g></svg>